<?xml version="1.0" encoding="utf-8"?>
<!-- Generator: Adobe Illustrator 16.0.0, SVG Export Plug-In . SVG Version: 6.00 Build 0)  -->
<!DOCTYPE svg PUBLIC "-//W3C//DTD SVG 1.1//EN" "http://www.w3.org/Graphics/SVG/1.1/DTD/svg11.dtd">
<svg version="1.1" id="Layer_1" xmlns="http://www.w3.org/2000/svg" xmlns:xlink="http://www.w3.org/1999/xlink" x="0px" y="0px"
	 width="555px" height="555px" viewBox="0 0 555 555" enable-background="new 0 0 555 555" xml:space="preserve">
<image display="none" overflow="visible" enable-background="new    " width="1908" height="948" xlink:href="banner.jpg"  transform="matrix(1 0 0 1 -999 -217)">
</image>
<g>
	<path fill="#F8F8F8" d="M278,43c31.743,0,62.515,6.208,91.46,18.451c27.979,11.834,53.115,28.784,74.71,50.379
		c21.596,21.595,38.545,46.731,50.38,74.71C506.792,215.486,513,246.257,513,278s-6.208,62.516-18.45,91.46
		c-11.835,27.979-28.784,53.115-50.38,74.71c-21.595,21.596-46.729,38.545-74.71,50.38C340.515,506.792,309.743,513,278,513
		s-62.514-6.208-91.46-18.45c-27.979-11.835-53.115-28.784-74.71-50.38c-21.595-21.595-38.545-46.729-50.379-74.71
		C49.208,340.516,43,309.743,43,278s6.208-62.514,18.451-91.46c11.834-27.979,28.784-53.115,50.379-74.71
		c21.595-21.595,46.731-38.545,74.71-50.379C215.486,49.208,246.257,43,278,43 M278,2C125.57,2,2,125.57,2,278
		c0,152.431,123.57,276,276,276c152.431,0,276-123.569,276-276C554,125.57,430.431,2,278,2L278,2z"/>
</g>
<g>
	<path fill="#F8F8F8" d="M278,123c41.669,0,80.844,16.227,110.309,45.691C417.773,198.156,434,237.331,434,279
		s-16.227,80.844-45.691,110.309C358.845,418.774,319.669,435,278,435s-80.844-16.227-110.309-45.691
		C138.227,359.844,122,320.669,122,279s16.227-80.844,45.691-110.309C197.156,139.227,236.331,123,278,123 M278,82
		C169.2,82,81,170.2,81,279s88.2,197,197,197s197-88.2,197-197S386.8,82,278,82L278,82z"/>
</g>
<g>
	<rect x="63.042" y="508.776" fill="#A5B7E8" width="3.723" height="27.573"/>
	<path fill="#B8C8F5" d="M43.233,475.229c-8.02-26.971-4.45-71.824-4.044-75.733c0.506-4.871-2.941-6.801-4.183-5.698
		c-1.24,1.104-6.111,22.06-5.928,41.176c0.185,19.117,6.25,44.485,8.639,46.875C40.108,484.237,45.255,482.03,43.233,475.229z"/>
	<path fill="#8AA0DE" d="M80.482,484.375c0,0-0.466,1.613-1.035,3.584c-0.568,1.972-3.019,3.585-5.445,3.585H55.804
		c-2.426,0-4.876-1.613-5.445-3.585c-0.568-1.971-1.034-3.584-1.034-3.584H80.482z"/>
	<path fill="#A5B7E8" d="M93.601,486.236c0,0,0-1.034,0-2.551s-6.618-5.515-11.857-6.893c-5.238-1.379-17.922-3.172-26.056-2.206
		c-8.135,0.965-15.165,0.138-16.958-0.414c-1.792-0.552-3.171,4.55-2.206,6.755c0.965,2.206,2.619,6.182,4.826,6.182
		c2.002,0,43.379-0.147,51.044-0.001C93.172,487.124,93.518,486.599,93.601,486.236z"/>
	<path fill="#6D86CF" d="M54.356,491.544l2.808,12.9c0.519,2.383,3.192,4.332,5.942,4.332H66.7c2.75,0,5.424-1.949,5.942-4.332
		l2.807-12.9H54.356z"/>
	<path fill="#6D86CF" d="M60.284,542.118l1.229-5.65c0.228-1.044,1.398-1.897,2.603-1.897h1.574c1.204,0,2.376,0.854,2.603,1.897
		l1.229,5.65H60.284z"/>
	<path fill="#8AA0DE" d="M36.428,545.797c0-2.023,2.071-3.679,4.602-3.679h47.748c2.53,0,4.602,1.655,4.602,3.679H36.428z"/>
</g>
<g>
	<path fill="#B6C2FF" d="M315.802,397.058h-76.064c0,0,3.154,48.451-11.907,48.451c4.818,0,95.06,0,99.879,0
		C312.648,445.509,315.802,397.058,315.802,397.058z"/>
	<path fill="#8693F2" d="M238.875,426.183l76.684-15.538c-0.14-7.683,0.243-13.587,0.243-13.587h-76.064
		C239.738,397.058,240.753,412.68,238.875,426.183z"/>
	<path fill="#6A7FDB" d="M423.471,411.665H132.069c-3.828,0-6.929-3.102-6.929-6.929V218.284c0-3.827,3.102-6.929,6.929-6.929
		h291.401c3.826,0,6.929,3.102,6.929,6.929v186.453C430.399,408.563,427.297,411.665,423.471,411.665z"/>
	<path fill="#FFFFFF" stroke="#8693F2" stroke-miterlimit="10" d="M418.604,404.565H136.935c-1.78,0-3.224-1.442-3.224-3.223
		V221.677c0-1.78,1.443-3.223,3.224-3.223h281.668c1.78,0,3.224,1.443,3.224,3.223v179.666
		C421.827,403.123,420.384,404.565,418.604,404.565z"/>
	<line fill="none" stroke="#8693F2" stroke-miterlimit="10" x1="133.711" y1="241.927" x2="421.827" y2="241.927"/>
	<path fill="#E6E8FC" d="M387.227,234.616H188.735c-2.72,0-4.924-2.205-4.924-4.924l0,0c0-2.72,2.205-4.924,4.924-4.924h198.492
		c2.719,0,4.925,2.205,4.925,4.924l0,0C392.151,232.412,389.945,234.616,387.227,234.616z"/>
	<g>
		<circle fill="#FFFFFF" stroke="#8693F2" stroke-miterlimit="10" cx="145.223" cy="229.935" r="2.627"/>
		<circle fill="#FFFFFF" stroke="#8693F2" stroke-miterlimit="10" cx="157.485" cy="229.935" r="2.627"/>
		<circle fill="#FFFFFF" stroke="#8693F2" stroke-miterlimit="10" cx="169.747" cy="229.935" r="2.627"/>
	</g>
	<g>
		<g>
			<path fill="none" stroke="#277EF1" stroke-width="1.5" stroke-miterlimit="10" d="M358.185,309.365H197.356
				c-6.093,0-11.032-4.94-11.032-11.032l0,0c0-6.093,4.939-11.032,11.032-11.032h160.829c6.092,0,11.031,4.939,11.031,11.032l0,0
				C369.216,304.425,364.276,309.365,358.185,309.365z"/>
			<path fill="#277EF1" d="M358.185,287.301h-18.514v22.064h18.514c6.092,0,11.031-4.94,11.031-11.032l0,0
				C369.216,292.24,364.276,287.301,358.185,287.301z"/>
		</g>
		<path fill="#FFFFFF" d="M361.407,303.655l-3.651-3.653c0.737-0.986,1.142-2.194,1.142-3.429c0-3.163-2.573-5.736-5.735-5.736
			c-3.163,0-5.735,2.573-5.735,5.736c0,3.161,2.572,5.735,5.735,5.735c0.918,0,1.827-0.225,2.644-0.652l3.8,3.8
			c0.241,0.241,0.562,0.373,0.9,0.373c0.34,0,0.66-0.132,0.901-0.373c0.24-0.241,0.373-0.561,0.373-0.901
			C361.78,304.215,361.647,303.895,361.407,303.655z M357.279,296.573c0,2.269-1.847,4.116-4.117,4.116s-4.118-1.848-4.118-4.116
			c0-2.271,1.848-4.118,4.118-4.118S357.279,294.302,357.279,296.573z"/>
		<path opacity="0.75" fill="#E0EBFC" d="M243.652,303.08h-46.026c-2.623,0-4.749-2.124-4.749-4.747l0,0
			c0-2.623,2.125-4.749,4.749-4.749h46.026c2.622,0,4.749,2.126,4.749,4.749l0,0C248.4,300.956,246.274,303.08,243.652,303.08z"/>
	</g>
	<rect x="214.248" y="444.126" fill="#B6C2FF" width="127.045" height="7.07"/>
	<g>
		<g>
			<path opacity="0.75" fill="#E0EBFC" d="M256.183,333.713h-31.146c-2.93,0-5.305-2.375-5.305-5.306l0,0
				c0-2.931,2.375-5.306,5.305-5.306h31.146c2.93,0,5.306,2.375,5.306,5.306l0,0C261.488,331.338,259.113,333.713,256.183,333.713z"
				/>
			
				<line fill="none" stroke="#277EF1" stroke-width="1.5" stroke-miterlimit="10" x1="225.44" y1="329.732" x2="255.781" y2="329.732"/>
		</g>
		<g>
			<path opacity="0.75" fill="#E0EBFC" d="M330.502,333.713h-55.29c-2.931,0-5.306-2.375-5.306-5.306l0,0
				c0-2.931,2.375-5.306,5.306-5.306h55.29c2.931,0,5.307,2.375,5.307,5.306l0,0C335.809,331.338,333.433,333.713,330.502,333.713z"
				/>
			
				<line fill="none" stroke="#277EF1" stroke-width="1.5" stroke-miterlimit="10" x1="281.473" y1="329.732" x2="324.241" y2="329.732"/>
		</g>
	</g>
	<line fill="#FFFFFF" stroke="#8693F2" stroke-miterlimit="10" x1="365.393" y1="250.817" x2="377.05" y2="250.817"/>
	<line fill="#FFFFFF" stroke="#8693F2" stroke-miterlimit="10" x1="382.695" y1="250.817" x2="394.353" y2="250.817"/>
	<g>
		<rect x="398.549" y="247.66" opacity="0.75" fill="#F5F6FF" width="1.568" height="1.568"/>
		<rect x="400.735" y="247.66" opacity="0.75" fill="#F5F6FF" width="1.568" height="1.568"/>
		<rect x="402.924" y="247.66" opacity="0.75" fill="#F5F6FF" width="1.569" height="1.568"/>
		<rect x="398.549" y="250.033" opacity="0.75" fill="#F5F6FF" width="1.568" height="1.569"/>
		<rect x="400.735" y="250.033" opacity="0.75" fill="#F5F6FF" width="1.568" height="1.569"/>
		<rect x="402.924" y="250.033" opacity="0.75" fill="#F5F6FF" width="1.569" height="1.569"/>
		<rect x="398.549" y="252.407" opacity="0.75" fill="#F5F6FF" width="1.568" height="1.568"/>
		<rect x="400.735" y="252.407" opacity="0.75" fill="#F5F6FF" width="1.568" height="1.568"/>
		<rect x="402.924" y="252.407" opacity="0.75" fill="#F5F6FF" width="1.569" height="1.568"/>
	</g>
	<circle fill="#F5F6FF" cx="410.973" cy="250.817" r="3.976"/>
	<g>
		<circle fill="#8693F2" cx="413.871" cy="224.768" r="1.037"/>
		<circle fill="#8693F2" cx="413.871" cy="229.692" r="1.037"/>
		<circle fill="#8693F2" cx="413.871" cy="234.616" r="1.037"/>
	</g>
	<line fill="none" stroke="#8693F2" stroke-miterlimit="10" x1="324.241" y1="444.504" x2="259.231" y2="444.504"/>
	<line fill="none" stroke="#8693F2" stroke-miterlimit="10" x1="251.939" y1="444.504" x2="230.716" y2="444.504"/>
	<g>
		<path fill="#F5F6FF" d="M307.081,386.457H157.829c-2.531,0-4.583-2.051-4.583-4.582V279.13c0-2.531,2.051-4.583,4.583-4.583
			h149.252c2.531,0,4.582,2.052,4.582,4.583v102.745C311.663,384.406,309.612,386.457,307.081,386.457z"/>
		<path fill="#FFFFFF" stroke="#8693F2" stroke-miterlimit="10" d="M297.833,380.703H148.58c-2.531,0-4.583-2.052-4.583-4.582
			V273.375c0-2.531,2.052-4.583,4.583-4.583h149.253c2.53,0,4.581,2.052,4.581,4.583v102.746
			C302.414,378.651,300.363,380.703,297.833,380.703z"/>
		<path fill="#8693F2" d="M298.076,268.792H148.335c-2.396,0-4.338,1.942-4.338,4.338v7.172h158.417v-7.172
			C302.414,270.734,300.473,268.792,298.076,268.792z"/>
		<g>
			<path fill="#F5F6FF" d="M286.688,348.269H161.039c-1.181,0-2.138-0.957-2.138-2.137l0,0c0-1.182,0.958-2.139,2.138-2.139h125.649
				c1.182,0,2.139,0.957,2.139,2.139l0,0C288.826,347.312,287.869,348.269,286.688,348.269z"/>
			<path fill="#F5F6FF" d="M286.688,355.718H161.039c-1.181,0-2.138-0.957-2.138-2.138l0,0c0-1.18,0.958-2.139,2.138-2.139h125.649
				c1.182,0,2.139,0.959,2.139,2.139l0,0C288.826,354.761,287.869,355.718,286.688,355.718z"/>
			<path fill="#F5F6FF" d="M286.688,363.151H161.039c-1.181,0-2.138-0.956-2.138-2.138l0,0c0-1.181,0.958-2.137,2.138-2.137h125.649
				c1.182,0,2.139,0.956,2.139,2.137l0,0C288.826,362.195,287.869,363.151,286.688,363.151z"/>
			<path fill="#F5F6FF" d="M286.688,370.587H161.039c-1.181,0-2.138-0.959-2.138-2.139l0,0c0-1.181,0.958-2.138,2.138-2.138h125.649
				c1.182,0,2.139,0.957,2.139,2.138l0,0C288.826,369.628,287.869,370.587,286.688,370.587z"/>
			<path fill="#F5F6FF" d="M286.688,340.819H161.039c-1.181,0-2.138-0.956-2.138-2.138l0,0c0-1.18,0.958-2.137,2.138-2.137h125.649
				c1.182,0,2.139,0.957,2.139,2.137l0,0C288.826,339.863,287.869,340.819,286.688,340.819z"/>
		</g>
		<g>
			<g id="XMLID_64_" opacity="0.75">
				<path fill="#B6C2FF" d="M188.819,295.446c-3.064-4.609-8.305-7.647-14.254-7.647v17.104L188.819,295.446z"/>
			</g>
			<path fill="#E6E8FC" d="M187.587,297.974l-14.25,9.453v-17.104c-9.447,0-17.104,7.658-17.104,17.104
				c0,9.446,7.657,17.104,17.104,17.104c9.446,0,17.104-7.658,17.104-17.104C190.441,303.932,189.388,300.683,187.587,297.974z"/>
			<path fill="#E6E8FC" d="M273.074,290.323v17.104l-13.597,10.345l0,0c3.124,4.101,8.043,6.76,13.597,6.76
				c9.447,0,17.104-7.658,17.104-17.104C290.178,297.981,282.521,290.323,273.074,290.323z"/>
			<path fill="#B6C2FF" d="M236.144,316.909c2.221-2.886,3.555-6.487,3.555-10.41c0-9.446-7.657-17.103-17.104-17.103v17.103
				L236.144,316.909z"/>
			<path fill="#E6E8FC" d="M234.236,317.837l-13.549-10.41v-17.104c-9.446,0-17.103,7.658-17.103,17.104
				c0,9.446,7.657,17.104,17.103,17.104C226.211,324.531,231.109,321.9,234.236,317.837
				C234.236,317.836,234.236,317.837,234.236,317.837z"/>
			<path fill="#B6C2FF" d="M254.351,306.532c0,3.893,1.315,7.47,3.504,10.345l13.599-10.345v-17.105
				C262.008,289.427,254.351,297.086,254.351,306.532z"/>
		</g>
	</g>
</g>
<g>
	<g>
		<polygon fill="#A5B7E8" points="443.739,411.322 445.203,420.259 445.203,420.285 450.428,452.193 451.018,455.804 
			457.743,496.872 458.333,500.482 464.783,539.892 467.836,539.892 446.673,410.618 445.203,410.971 443.845,411.296 		"/>
		<polygon fill="#A5B7E8" points="471.158,539.892 474.211,539.892 493.783,420.295 493.783,420.285 495.254,411.322 
			493.783,410.971 492.32,410.618 		"/>
		<polyline fill="#6D86CF" points="425.63,539.892 432.079,500.482 432.669,496.872 439.396,455.804 439.985,452.193 
			445.203,420.295 445.203,420.259 446.673,411.322 445.203,410.971 443.739,410.618 422.577,539.892 425.623,539.892 		"/>
		<polygon fill="#A5B7E8" points="492.32,411.322 493.783,420.285 493.783,420.295 513.363,539.892 516.417,539.892 
			495.254,410.618 493.783,410.971 		"/>
		<rect x="430.851" y="496.874" fill="#A5B7E8" width="77.294" height="3.61"/>
		<rect x="437.915" y="452.189" fill="#A5B7E8" width="62.517" height="3.61"/>
		<polygon fill="#6D86CF" points="422.577,539.892 425.623,539.892 432.071,500.482 458.333,500.482 457.743,496.872 
			432.662,496.872 439.388,455.804 451.018,455.804 450.428,452.193 439.978,452.193 445.203,420.285 445.203,420.259 
			443.845,411.296 443.739,410.618 		"/>
		<polygon fill="#A5B7E8" points="495.253,410.62 492.324,410.62 494.5,414.205 		"/>
		<polygon fill="#6D86CF" points="446.67,410.62 443.742,410.618 446.103,414.791 		"/>
		<line fill="#EF91B3" x1="425.63" y1="539.892" x2="425.623" y2="539.892"/>
	</g>
</g>
<g>
	<g>
		<path fill="#0B0C0C" d="M123.586,538.832c-7.419,0-10.701-0.637-12.169-1.217c0.285,1.218,1.371,2.18,2.742,2.18h26.245
			c0.884,0,1.442-0.846,1.231-1.611C138.643,538.424,132.289,538.832,123.586,538.832z"/>
		<path fill="#0B0C0C" d="M141.635,538.184c-0.043-0.155-0.105-0.307-0.216-0.446c-1.999-2.553-6.015-6.562-11.478-6.485
			c-8.003,0.113-10.793,0.981-17.012,0.049l-1.467,4.863c-0.149,0.497-0.152,0.991-0.045,1.451c1.468,0.58,4.75,1.217,12.169,1.217
			C132.289,538.832,138.643,538.424,141.635,538.184z"/>
	</g>
	<linearGradient id="SVGID_1_" gradientUnits="userSpaceOnUse" x1="112.9287" y1="529.5859" x2="121.1162" y2="529.5859">
		<stop  offset="0" style="stop-color:#FF928E"/>
		<stop  offset="1" style="stop-color:#FEB3B1"/>
	</linearGradient>
	<path fill="url(#SVGID_1_)" d="M114.73,526.061l-1.801,6.126c0,0,3.99,1.816,7.499,0.357l0.688-5.307L114.73,526.061z"/>
	<g>
		<path fill="#0B0C0C" d="M169.126,534.975c-5.784,4.646-8.739,6.209-10.245,6.679c0.982,0.767,2.427,0.833,3.496-0.026
			l20.459-16.438c0.689-0.554,0.597-1.56-0.045-2.021C180.609,525.228,175.91,529.524,169.126,534.975z"/>
		<path fill="#0B0C0C" d="M182.791,523.167c-0.129-0.093-0.273-0.172-0.446-0.212c-3.149-0.729-8.779-1.322-12.989,2.158
			c-6.168,5.101-7.802,7.521-13.231,10.694l1.888,4.691c0.193,0.479,0.5,0.864,0.87,1.154c1.506-0.47,4.461-2.032,10.245-6.679
			C175.91,529.524,180.609,525.228,182.791,523.167z"/>
	</g>
	<path fill="#3F3A6B" d="M76.204,456.276c0,0,44.417,3.627,53.528,7.916c9.112,4.29-7.436,64.406-7.436,64.406s-2.48,1.193-8-0.522
		c0,0,5.66-44.363,1.448-53.983l-48.091-7.866L76.204,456.276z"/>
	<linearGradient id="SVGID_2_" gradientUnits="userSpaceOnUse" x1="151.7109" y1="530.2754" x2="161.4863" y2="530.2754">
		<stop  offset="0" style="stop-color:#FF928E"/>
		<stop  offset="1" style="stop-color:#FEB3B1"/>
	</linearGradient>
	<path fill="url(#SVGID_2_)" d="M151.711,527.363c0.413,0.375,4.413,8.444,4.413,8.444s4.454-0.964,5.362-3.783l-4.008-7.282
		L151.711,527.363z"/>
	<path fill="#49437B" d="M49.453,455.905c0,0-1.447,3.482-1.388,8.111c0.082,6.4,5.227,11.595,11.621,11.914l52.507,2.395
		c1.109,0.05,2.047,0.817,2.325,1.893c1.234,4.772,7.265,19.429,36.746,48.673c0.784,0.778,2.006,0.911,2.939,0.32l4.197-2.65
		c0.441-0.279,0.582-0.856,0.318-1.307l-30.572-52.206c-1.606-2.649-4.187-4.564-7.188-5.332l-44.753-11.439L49.453,455.905z"/>
	<linearGradient id="SVGID_3_" gradientUnits="userSpaceOnUse" x1="97.4126" y1="392.5264" x2="102.232" y2="380.3731">
		<stop  offset="0" style="stop-color:#FF928E"/>
		<stop  offset="1" style="stop-color:#FEB3B1"/>
	</linearGradient>
	<path fill="url(#SVGID_3_)" d="M101.198,374.354c0,0-5.625,9.944-11.359,14.763l11.853,6.614c0,0,2.671-10.529,8.774-13.612
		L101.198,374.354z"/>
	<linearGradient id="SVGID_4_" gradientUnits="userSpaceOnUse" x1="86.4258" y1="434.834" x2="139.5051" y2="521.9727">
		<stop  offset="0" style="stop-color:#FE7062"/>
		<stop  offset="1" style="stop-color:#FF928E"/>
	</linearGradient>
	<path fill="url(#SVGID_4_)" d="M48.499,456.276c0,0,14.175,3.454,27.705,0c0,0,18.933-25.45,26.257-32.377
		c0,0,11.683,18.436,37.688,21.048l1.451-3.24c0,0-20.703-9.544-27.076-24.207c-6.374-14.664-8.933-20.919-14.731-24.744
		c-3.611-2.383-5.773-4.01-6.891-4.899c-0.612-0.486-1.457-0.541-2.124-0.135C84.625,391.472,55.67,411.303,48.499,456.276z"/>
	<linearGradient id="SVGID_5_" gradientUnits="userSpaceOnUse" x1="94.0176" y1="416.4219" x2="102.3613" y2="416.4219">
		<stop  offset="0" style="stop-color:#E1473D"/>
		<stop  offset="1" style="stop-color:#E9605A"/>
	</linearGradient>
	<path fill="url(#SVGID_5_)" d="M101.693,423.301c-0.201,0-0.4-0.091-0.531-0.263c-4.494-5.859-6.995-12.314-7.1-12.586
		c-0.132-0.346,0.04-0.731,0.385-0.864c0.346-0.134,0.732,0.04,0.864,0.384c0.025,0.065,2.541,6.553,6.912,12.252
		c0.225,0.293,0.169,0.713-0.124,0.938C101.978,423.256,101.834,423.301,101.693,423.301z"/>
	<linearGradient id="SVGID_6_" gradientUnits="userSpaceOnUse" x1="138.5859" y1="439.79" x2="161.1655" y2="439.79">
		<stop  offset="0" style="stop-color:#FF928E"/>
		<stop  offset="1" style="stop-color:#FEB3B1"/>
	</linearGradient>
	<path fill="url(#SVGID_6_)" d="M138.586,440.015l2.927-0.78l8.887-2.058c1.07-0.248,2.195-0.059,3.124,0.526l7.642,4.807
		l-21.103-0.035L138.586,440.015z"/>
	<g>
		
			<linearGradient id="SVGID_7_" gradientUnits="userSpaceOnUse" x1="2015.791" y1="920.0244" x2="1991.5928" y2="938.5398" gradientTransform="matrix(0.9914 -0.1306 0.1306 0.9914 -2006.483 -281.0395)">
			<stop  offset="0" style="stop-color:#FF928E"/>
			<stop  offset="1" style="stop-color:#FEB3B1"/>
		</linearGradient>
		<path fill="url(#SVGID_7_)" d="M110.129,359.44c0,0,5.466,9.088,6.415,14.11c0.948,5.022,2.471,8.161-3.245,9.951
			c-5.716,1.789-11.028-0.475-14.362-5.163c0,0-5.207-7.216-4.687-10.52S110.129,359.44,110.129,359.44z"/>
		
			<linearGradient id="SVGID_8_" gradientUnits="userSpaceOnUse" x1="1998.791" y1="905.4102" x2="2020.7003" y2="933.6183" gradientTransform="matrix(0.9914 -0.1306 0.1306 0.9914 -2006.483 -281.0395)">
			<stop  offset="0" style="stop-color:#09005D"/>
			<stop  offset="1" style="stop-color:#1A0F91"/>
		</linearGradient>
		<path fill="url(#SVGID_8_)" d="M100.459,374.451l0.739-0.097c0,0-3.871-5.85-1.338-7.301c2.533-1.45,12.854-5.011,14.646-9.075
			c1.728-3.919-0.857-8.346-3.974-9.27c-0.197-0.059-0.405,0.058-0.476,0.251l-0.183,0.493c-0.125,0.338-0.599,0.352-0.743,0.021
			l0,0c-0.137-0.313-0.585-0.326-0.727-0.016c-0.552,1.218-2.208,3.298-7.171,4.907c-7.043,2.283-11.43,5.834-10.89,10.838
			c0.034,0.316-0.281,0.535-0.573,0.406c-0.576-0.255-1.448-0.295-2.461,0.814c-1.763,1.928-0.382,6.144,4.431,9.127
			c0.229,0.143,0.27,0.466,0.065,0.641c-0.72,0.616-1.733,1.99,1.523,3.217c3.332,1.254,5.15,0.829,5.821,0.56
			c0.181-0.072,0.284-0.26,0.247-0.451l-0.856-4.384c-0.044-0.227,0.112-0.444,0.341-0.475L100.459,374.451z"/>
		
			<linearGradient id="SVGID_9_" gradientUnits="userSpaceOnUse" x1="2012.7881" y1="916.1016" x2="1988.5918" y2="934.6154" gradientTransform="matrix(0.9914 -0.1306 0.1306 0.9914 -2006.483 -281.0395)">
			<stop  offset="0" style="stop-color:#FF928E"/>
			<stop  offset="1" style="stop-color:#FEB3B1"/>
		</linearGradient>
		<path fill="url(#SVGID_9_)" d="M100.762,375.353c0,0-2.412-5.946-4.945-3.856s2.341,6.711,4.591,6.648L100.762,375.353z"/>
	</g>
</g>
<g>
	<g>
		<path fill="#506BD8" d="M130.434,446.65c0.034,0.002,0.069,0.002,0.103,0.002l45.083-0.045c1.115-0.001,2.018-0.903,2.016-2.016
			c-0.001-1.113-0.909-2.033-2.021-2.013l-45.083,0.045c-1.115,0.001-2.017,0.903-2.015,2.017
			C128.517,445.718,129.367,446.597,130.434,446.65z"/>
	</g>
	<g>
		<path fill="#506BD8" d="M193.078,402.5c-0.016,0.031-0.031,0.062-0.046,0.094l-18.969,40.897
			c-0.469,1.011-0.031,2.209,0.979,2.677c1.01,0.469,2.226,0.033,2.677-0.983l18.969-40.897c0.469-1.011,0.03-2.209-0.979-2.678
			C194.731,401.157,193.576,401.556,193.078,402.5z"/>
	</g>
</g>
<g>
	<path fill="#91B3FA" d="M150.506,450.038c-0.197,0.816-19.008,71.366-23.777,89.252c-0.55,2.062,0.986,4.085,3.095,4.085l0,0
		c1.471,0,2.753-1.014,3.109-2.458l20.881-84.662L150.506,450.038z"/>
	<path fill="#91B3FA" d="M160.807,450.038c0.197,0.816,19.008,71.366,23.777,89.252c0.549,2.062-0.985,4.085-3.095,4.085l0,0
		c-1.471,0-2.754-1.014-3.109-2.458l-20.882-84.662L160.807,450.038z"/>
	<path fill="#91B3FA" d="M161.592,447.731h-11.716v9.408c0,1.353,1.083,2.449,2.42,2.449h1.606v21.132
		c0,1.023,0.82,1.854,1.832,1.854l0,0c1.012,0,1.832-0.831,1.832-1.854v-21.132h0.815c1.773,0,3.211-1.455,3.211-3.25V447.731z"/>
	<path fill="#BDD0FB" d="M121.07,445.472h65.416c0.914,0,1.712,0.626,1.941,1.521l0.913,3.582c0.329,1.289-0.638,2.544-1.953,2.535
		l-67.124-0.39c-1.301-0.008-2.25-1.248-1.933-2.524l0.794-3.191C119.35,446.104,120.151,445.472,121.07,445.472z"/>
</g>
<g id="XMLID_74_">
	<rect id="XMLID_93_" x="313.151" y="116" fill="#7D97F4" width="7.012" height="82.983"/>
	<polygon id="XMLID_92_" fill="#7D97F4" points="274.63,119.922 209.122,211.744 219.013,211.744 281.516,122.931 	"/>
	<rect id="XMLID_91_" x="283.557" y="113.084" fill="#7D97F4" width="33.69" height="7.011"/>
	<path id="XMLID_90_" fill="none" stroke="#C2D9F9" stroke-miterlimit="10" d="M307.885,119.568c0,26.479-14.36,25.004-22.447,4.161
		"/>
	<path id="XMLID_89_" fill="none" stroke="#C2D9F9" stroke-miterlimit="10" d="M296.552,118.481
		c1.499,24.142-12.896,24.592-13.915,1.087"/>
	<g id="XMLID_84_">
		<g>
			<g id="XMLID_37_">
				<polygon id="XMLID_38_" fill="#7D97F4" points="345.433,236.186 350.553,236.186 350.553,212.477 320.236,199.679 
					326.004,198.875 354.309,210.405 354.309,239.939 345.433,239.939 				"/>
			</g>
			<g id="XMLID_35_">
				<polygon id="XMLID_36_" fill="#7D97F4" points="285.884,236.186 280.762,236.186 280.762,212.477 310.367,200.126 
					305.312,198.875 277.007,210.405 277.007,239.939 285.884,239.939 				"/>
			</g>
		</g>
	</g>
	<rect id="XMLID_83_" x="304.212" y="195.65" fill="#7D97F4" width="24.892" height="6.813"/>
	<circle id="XMLID_78_" fill="#7D97F4" cx="317.132" cy="116" r="9.914"/>
	<circle id="XMLID_77_" fill="#6282DD" cx="317.132" cy="116" r="3.922"/>
	<circle id="XMLID_76_" fill="#7D97F4" cx="281.515" cy="116" r="9.915"/>
	<circle id="XMLID_75_" fill="#6282DD" cx="281.515" cy="116" r="3.922"/>
</g>
<g>
	<path fill="#F99746" d="M196.229,148.213c0.449,0.019,1.679,0.43,3.478,3.83c2.297,4.341,5.654,17.456,5.654,17.456l-10.022,3.732
		l-1.287-2.737l-2.121-21.074C191.931,149.42,196.104,148.208,196.229,148.213z"/>
	<path fill="#E58638" d="M182.98,146.323c2.866,0.004,9.957,0.84,13.248,1.892c0,0,2.418,20.78-2.177,36.57
		c-1.028,3.535,0.851,14.653,0.851,14.653l-29.696-0.392c0,0,3.518-26.878,2.192-31.219c-1.325-4.341-1.357-19.471-1.357-19.471
		s0.204-0.032,6.672-1.15C175.731,146.683,179.921,146.318,182.98,146.323z"/>
	<path fill="#F7A491" d="M179.52,238.006c0,0,0.657,7.583,1.865,9.683c1.208,2.1-0.063,5.669-0.127,6.159
		c-0.064,0.49-2.543,1.19-6.485,0.771c-3.941-0.42-3.878-1.331-3.56-2.799c0.318-1.47,2.416-3.36,2.543-4.76
		c0.127-1.399-1.208-6.44-1.208-6.44L179.52,238.006z"/>
	<path fill="#3F3A6B" d="M191.552,193.179c0,0,20.5-1.138,25.077,1.634c4.578,2.772-3.252,16.378-3.252,16.378
		s-14.264-0.657-42.204,0.956c-6.616,0.381-7.186-17.251-5.949-18.71C166.461,191.977,191.552,193.179,191.552,193.179z"/>
	<path fill="#DD513A" d="M174.282,255.206c-4.059-0.433-3.557-2.427-3.229-3.94c0.205-0.947,1.37-2.064,2.063-3.121
		c0.363,0.289,0.954,0.799,2.716,1.32c1.831,0.541,4.34-0.529,5.938-1.2c0.57,2.121,0.596,4.825,0.543,5.236
		C182.247,254.005,178.341,255.638,174.282,255.206z"/>
	<path fill="#49437B" d="M176.522,207.844c0.819,6.197,4.874,37.049,4.874,37.049l-9.409,1.166c0,0-11.571-40.269-10.978-46.428
		c0.593-6.16,4.924-6.677,4.924-6.677S174.354,191.438,176.522,207.844z"/>
	<path fill="#F7A491" d="M165.719,150.663c2.777-1.042,4.135,23.977,4.509,34.273c4.917,0.473,13.487,0.004,15.621-0.157
		c1.004-0.075,3.318-0.923,4.316-1.054c1.022-0.134,1.95-0.204,2.453-0.116c0.185,0.032,5.31,2.128,5.748,2.587
		c0.544,0.57,2.014,2.008,1.766,2.63c-0.248,0.622-2.827-1.732-2.827-1.732l-1.26-0.707c1.569,1.533,4.562,3.551,4.131,4.287
		c-0.42,0.716-3.12-1.332-5.044-2.728c1.65,1.491,3.701,4.158,3.229,4.574c-0.425,0.374-2.757-2.714-5.249-3.604
		c-0.924-0.33-1.844,0.583-2.571,0.693c-0.534,0.081-1.358,0.254-1.882,0.105l-2.698-0.766c-0.92,0.083-0.943,0.626-1.871,0.824
		c-1.078,0.229-2.846,0.471-4.218,0.807c-7.903,1.931-10.539,2.827-12.959,2.826C159.582,193.402,159.157,153.125,165.719,150.663z"
		/>
	<path fill="#F99746" d="M160.45,174.151c-0.52-10.548-0.444-23.548,5.468-25.767c2.333-0.875,6.446,4.388,5.707,25.98
		C168.468,174.625,163.834,174.835,160.45,174.151z"/>
	<path fill="#F7A491" d="M208.017,245.359c0,0-1.359,2.399-0.29,4.411c1.069,2.012,6.679,4.972,7.264,6.063
		c0.584,1.091,0.355,1.862,0.355,1.862l-16.658-4.083l1.276-5.021l1.558-3.47L208.017,245.359z"/>
	<path fill="#DD513A" d="M208.586,250.844c0,0-4.683,0.811-6.54-0.67c-1.857-1.48-1.732-1.753-2.417-1.498
		c-0.44,0.164-1.111,2.164-1.533,3.571c-0.225,0.75,0.226,1.534,0.985,1.721l17.346,4.287c1.317,0.253,2.189-0.569,1.302-1.625
		c-0.607-0.726-1.37-1.288-1.79-1.666C214.648,253.799,208.586,250.844,208.586,250.844z"/>
	<path fill="#49437B" d="M206.384,198.038c1.325-2.789,4.339-6.419,9.642-4.233c5.058,2.085,6.415,7.211,4.819,12.46
		c-1.595,5.249-12.101,36.104-12.467,40.347l-8.387,0.055c0,0,1.524-24.432,1.898-30.337
		C202.249,210.647,204.091,202.864,206.384,198.038z"/>
	<path fill="#184655" d="M220.001,169.619h-28.038c-0.742,0-1.41,0.45-1.692,1.138l-8.633,21.127h-15.457
		c-0.433,0-0.783,0.352-0.783,0.785l0,0c0,0.433,0.351,0.785,0.783,0.785h43.992c1.21,0,2.307-0.712,2.802-1.819l8.693-19.431
		C222.212,170.99,221.327,169.619,220.001,169.619z"/>
	
		<ellipse transform="matrix(0.9805 0.1967 -0.1967 0.9805 39.6915 -36.4565)" fill="#FFFFFF" cx="203.406" cy="181.62" rx="1.529" ry="1.752"/>
	<g>
		<path fill="#0E2E35" d="M189.644,120.943c-0.845-0.285-1.677-0.606-2.48-0.994c-0.908-0.438-2.085-0.951-2.828-1.065
			c-1.565-0.242-4.253-0.081-5.737,1.529c-1.85,2.007-5.136,0.363-4.474,10.87c0.75,11.894,7.362,10.588,7.522,10.387
			c0.161-0.202,5.898-7.609,5.898-7.609s2.006,4.388,2.006,4.227C189.551,138.133,199.794,124.361,189.644,120.943z"/>
		<path fill="#F7A491" d="M184.624,142.548l0.571,4.25c0,0,1.278,6.123-0.367,7.302c-1.646,1.181-6.996-7.477-6.996-7.477
			l0.564-10.768L184.624,142.548z"/>
		<path fill="#F47458" d="M178.214,139.344c1.359,3.673,4.596,5.931,6.893,6.807l-0.484-3.603l-6.227-6.693L178.214,139.344z"/>
		<path fill="#F7A491" d="M184.286,124.137c3.486-0.563,6.613,2.241,6.526,5.73c-0.038,1.517-0.162,3.412-0.477,5.451
			c-0.758,4.906-4.105,9.226-6.318,8.839c-2.213-0.386-7.782-4.617-6.801-11.598C177.821,128.25,180.627,124.728,184.286,124.137z"
			/>
		
			<ellipse transform="matrix(0.9852 0.1716 -0.1716 0.9852 25.474 -28.4293)" fill="#F7A491" cx="177.159" cy="133.115" rx="1.616" ry="1.982"/>
		<path fill="#0E2E35" d="M177.497,131.162c0,0,2.676,0.665,3.668-1.056c0.993-1.722,4.544-5.436,9.058-3.896
			c4.514,1.54-3.972-3.744-4.333-3.744s-4.695-0.03-4.695-0.03s-3.34,2.748-3.46,3.05c-0.12,0.302-1.083,3.593-1.083,3.593
			L177.497,131.162z"/>
	</g>
	<path fill="#FFFFFF" d="M182.392,138.342l4.869,0.931c0,0-0.464,1.834-2.617,1.487
		C182.019,140.336,182.392,138.342,182.392,138.342z"/>
</g>
<g>
	<path fill="#1F1C37" d="M464.554,262.908l-0.655-2.474c0,0-4.12-2.245,0.754-6.86c4.643-4.395,17.576-0.543,20.665,6.864
		c3.089,7.407,3.879,12.444,13.854,16.297c9.975,3.852,12.643,12.741,7.703,23.407c-4.938,10.667,4.544,15.21-1.876,20.544
		c-6.42,5.333-13.729,4.049-17.087-2.37c-3.358-6.42-8.297-19.655-13.037-26.371S464.554,262.908,464.554,262.908z"/>
	<g>
		<polygon fill="#F7B6B0" points="460.938,441.363 460.604,446.353 454.202,446.353 453.556,441.363 		"/>
		<path fill="#1F1C37" d="M460.604,446.353c0,0,0.748,6.651,0,7.15s-16.796,0-16.796,0s-1.663-0.582-0.582-1.913
			c1.081-1.33,10.061-3.824,10.976-5.237H460.604z"/>
	</g>
	<g>
		<polygon fill="#F7B6B0" points="494.904,438.8 496.516,444.084 490.238,445.34 488.625,440.575 		"/>
		<path fill="#1F1C37" d="M496.516,444.084c0,0,2.382,6.156,1.402,7.012c-1.11,0.97-3.111,0.425-5.761,0.886
			c-2.603,0.451-4.94,1.145-5.816,1.259c-2.741,0.359-4.892,0.262-4.892,0.262s-1.745-0.244-0.946-1.761
			c0.328-0.622,2.167-0.926,3.95-1.945c2.155-1.232,5.419-3.532,5.785-4.456L496.516,444.084z"/>
	</g>
	<path fill="#1777AA" d="M447.902,340.817c0,0-5.523,25.461-1.908,53.401c3.614,27.941,7.644,51.087,7.644,51.087l7.736-0.672
		c0,0,2.783-70.728,2.989-75.207c0.206-4.479-1.111-29.942-1.111-29.942L447.902,340.817z"/>
	<path fill="#42A1CD" d="M457.621,344.272c0,0,6.323,35.038,13.996,57.922c7.672,22.884,17.457,41.481,17.457,41.481l7.441-1.751
		c0,0-8.702-31.964-10.434-53.655c-1.731-21.692-6.229-43.21-8.939-48.524C474.432,334.43,457.621,344.272,457.621,344.272z"/>
	<path fill="#E58638" d="M465.739,285.278c0,0-8.741,0.445-15.111,6.371s-14.519,11.259-16.148,11.11
		c-1.63-0.147-19.407-5.926-19.407-5.926l-2.074,5.037c0,0,13.333,6.815,19.408,8.593c6.073,1.778,25.197-11.803,21.461-7.443
		c-2.667,3.111-4.4,10.406-1.968,14.259c2.433,3.852-4.792,24.371-4.792,24.371s1.595,3.48,12.854,3.332
		c11.26-0.147,16.802-3.89,17.873-3.634c1.071,0.255-4.539-10.588-1.873-19.478c2.668-8.889,6.667-14.518,7.557-19.555
		c0.889-5.037,3.461-9.814,3.461-9.814S486.776,287.057,465.739,285.278z"/>
	<path fill="#F7B6B0" d="M463.898,260.435c0,0-6.308,16.597,1.989,19.362c0,0-1.58,6.914-0.89,7.704
		c0.691,0.79,5.517,4.215,10.71-0.905c0,0-1.638-7.786,0-9.466c1.637-1.679,4.204-2.962,4.6-5.63
		c0.395-2.666-2.074-1.777-2.864-1.382c-0.79,0.395-3.358-2.074-5.334-6.42C470.135,259.353,464.768,257.773,463.898,260.435z"/>
	<path fill="#F7B6B0" d="M415.072,296.834c0,0-5.432-2.419-8.643-3.309c-3.209-0.889-3.407,0.346-3.062,0.643
		c0.346,0.296,4.593,0.987,4.05,2.666s-1.186,4.05,5.58,5.037L415.072,296.834z"/>
	<polygon fill="#FFA171" points="464.858,332.045 447.58,332.045 438.939,305.116 456.219,305.116 	"/>
	<path fill="#F7B6B0" d="M464.554,324.494c0,0-2.814,0.933-5.037,1.328c-2.222,0.396-5.037,0.099-4.938,1.531
		c0.1,1.432,4.79,3.259,9.976,2.222V324.494z"/>
	<g>
		<path fill="#EF8A3F" d="M480.252,296.422c0,0-4.616,14.276-4.291,25.449c0,0,3.588-10.214,6.797-16.755
			C485.966,298.576,480.252,296.422,480.252,296.422z"/>
	</g>
	<path fill="#F99746" d="M464.554,324.494v5.081c0,0,25.334,2.815,28.148-4.148c2.814-6.963-2.536-34.618-7.786-35.013
		c-5.251-0.395-7.621,11.31-0.362,30.717L464.554,324.494z"/>
	<path fill="#E39E98" d="M465.888,279.797c0,0,3.979,0.187,6.201-1.072c2.224-1.26,2.366,2.068-6.706,3.516L465.888,279.797z"/>
</g>
<g>
	<path fill="#1DDFFF" d="M125.507,143.642H66.393c-3.565,0-6.455-2.89-6.455-6.455v-29.557c0-3.564,2.89-6.455,6.455-6.455h59.114
		c3.565,0,6.455,2.89,6.455,6.455v29.557C131.962,140.751,129.072,143.642,125.507,143.642z"/>
	<g>
		<g>
			<circle fill="#FFFFFF" cx="79.714" cy="122.408" r="12.853"/>
		</g>
	</g>
	<path fill="#5882D6" d="M81.825,122.433c0.8-0.628,1.322-1.592,1.322-2.688c0-1.896-1.537-3.432-3.433-3.432
		c-1.896,0-3.433,1.537-3.433,3.432c0,1.096,0.522,2.06,1.322,2.688c-2.541,0.873-4.383,3.242-4.424,6.07h13.069
		C86.207,125.675,84.365,123.306,81.825,122.433z"/>
	<path fill="#FFFFFF" d="M111.011,115.167H99.121c-0.765,0-1.384-0.62-1.384-1.385c0-0.764,0.62-1.384,1.384-1.384h11.891
		c0.765,0,1.385,0.62,1.385,1.384C112.396,114.547,111.776,115.167,111.011,115.167z"/>
	<path fill="#FFFFFF" d="M121.883,115.167h-4.303c-0.765,0-1.385-0.62-1.385-1.385c0-0.764,0.62-1.384,1.385-1.384h4.303
		c0.765,0,1.385,0.62,1.385,1.384C123.268,114.547,122.648,115.167,121.883,115.167z"/>
	<path fill="#FFFFFF" d="M121.883,123.697h-16.194c-0.765,0-1.385-0.62-1.385-1.385c0-0.764,0.621-1.384,1.385-1.384h16.194
		c0.765,0,1.385,0.62,1.385,1.384C123.268,123.077,122.648,123.697,121.883,123.697z"/>
	<path fill="#FFFFFF" d="M121.883,132.417h-3.284c-0.765,0-1.384-0.62-1.384-1.384c0-0.765,0.619-1.385,1.384-1.385h3.284
		c0.765,0,1.385,0.62,1.385,1.385C123.268,131.797,122.648,132.417,121.883,132.417z"/>
</g>
<g>
	<path fill="#6ABFFF" d="M447.455,137.082c-5.466,0-9.897,4.432-9.897,9.898v29.693v4.231c0,3.401,4.093,5.124,6.525,2.748
		l6.023-5.885c0.718-0.701,1.682-1.094,2.685-1.094h39.912c5.466,0,9.897-4.431,9.897-9.898V146.98c0-5.466-4.432-9.898-9.897-9.898
		H447.455z"/>
	<circle fill="#FFFFFF" cx="460.212" cy="156.823" r="3.037"/>
	<circle fill="#FFFFFF" cx="472.011" cy="156.823" r="3.038"/>
	<circle fill="#FFFFFF" cx="483.811" cy="156.823" r="3.037"/>
</g>
<path fill="#FF5F5F" d="M317.941,61.976h-29.513c-3.906,0-7.071-3.166-7.071-7.071V36.151c0-3.905,3.165-7.071,7.071-7.071h29.513
	c3.906,0,7.071,3.166,7.071,7.071v18.753C325.013,58.81,321.848,61.976,317.941,61.976z"/>
<polygon fill="#FFFFFF" points="299.957,38.952 299.957,52.104 309.487,45.528 "/>
<g>
	<linearGradient id="SVGID_10_" gradientUnits="userSpaceOnUse" x1="257.209" y1="300.9473" x2="379.9277" y2="300.9473">
		<stop  offset="0" style="stop-color:#2E719D"/>
		<stop  offset="1" style="stop-color:#2E3C84"/>
	</linearGradient>
	<path fill="url(#SVGID_10_)" d="M379.928,245.105v120.238H257.209V245.105c0-4.705,3.851-8.556,8.555-8.556h105.609
		C376.078,236.55,379.928,240.4,379.928,245.105z"/>
	<path fill="#6A7FDB" d="M379.928,245.105v8.556H257.209v-8.556c0-4.705,3.851-8.556,8.555-8.556h105.609
		C376.078,236.55,379.928,240.4,379.928,245.105z"/>
	<linearGradient id="SVGID_11_" gradientUnits="userSpaceOnUse" x1="369.332" y1="245.106" x2="373.2813" y2="245.106">
		<stop  offset="0" style="stop-color:#EEFBF4"/>
		<stop  offset="1" style="stop-color:#D0D9F2"/>
	</linearGradient>
	<circle fill="url(#SVGID_11_)" cx="371.307" cy="245.105" r="1.975"/>
	<linearGradient id="SVGID_12_" gradientUnits="userSpaceOnUse" x1="361.9287" y1="245.106" x2="365.877" y2="245.106">
		<stop  offset="0" style="stop-color:#2E719D"/>
		<stop  offset="1" style="stop-color:#2E3C84"/>
	</linearGradient>
	<circle fill="url(#SVGID_12_)" cx="363.903" cy="245.105" r="1.974"/>
	<linearGradient id="SVGID_13_" gradientUnits="userSpaceOnUse" x1="354.5254" y1="245.106" x2="358.4727" y2="245.106">
		<stop  offset="0" style="stop-color:#2E719D"/>
		<stop  offset="1" style="stop-color:#2E3C84"/>
	</linearGradient>
	<circle fill="url(#SVGID_13_)" cx="356.499" cy="245.105" r="1.974"/>
	<linearGradient id="SVGID_14_" gradientUnits="userSpaceOnUse" x1="266.3564" y1="245.106" x2="302.8818" y2="245.106">
		<stop  offset="0" style="stop-color:#2E719D"/>
		<stop  offset="1" style="stop-color:#2E3C84"/>
	</linearGradient>
	<path fill="url(#SVGID_14_)" d="M302.882,245.105c0,1.086-0.89,1.975-1.975,1.975h-32.576c-1.086,0-1.975-0.889-1.975-1.975l0,0
		c0-1.086,0.889-1.974,1.975-1.974h32.576C301.992,243.132,302.882,244.02,302.882,245.105L302.882,245.105z"/>
	<g>
		<g>
			<linearGradient id="SVGID_15_" gradientUnits="userSpaceOnUse" x1="268.4531" y1="263.2793" x2="272.6826" y2="263.2793">
				<stop  offset="0" style="stop-color:#EEFBF4"/>
				<stop  offset="1" style="stop-color:#D0D9F2"/>
			</linearGradient>
			<path fill="url(#SVGID_15_)" d="M271.646,264.314h-2.158c-0.571,0-1.035-0.463-1.035-1.035s0.464-1.035,1.035-1.035h2.158
				c0.572,0,1.036,0.463,1.036,1.035S272.219,264.314,271.646,264.314z"/>
		</g>
		<g>
			<linearGradient id="SVGID_16_" gradientUnits="userSpaceOnUse" x1="268.4531" y1="271.54" x2="272.6826" y2="271.54">
				<stop  offset="0" style="stop-color:#EEFBF4"/>
				<stop  offset="1" style="stop-color:#D0D9F2"/>
			</linearGradient>
			<path fill="url(#SVGID_16_)" d="M271.646,272.575h-2.158c-0.571,0-1.035-0.463-1.035-1.035s0.464-1.035,1.035-1.035h2.158
				c0.572,0,1.036,0.463,1.036,1.035S272.219,272.575,271.646,272.575z"/>
		</g>
		<g>
			<linearGradient id="SVGID_17_" gradientUnits="userSpaceOnUse" x1="268.4531" y1="279.8008" x2="272.6826" y2="279.8008">
				<stop  offset="0" style="stop-color:#EEFBF4"/>
				<stop  offset="1" style="stop-color:#D0D9F2"/>
			</linearGradient>
			<path fill="url(#SVGID_17_)" d="M271.646,280.837h-2.158c-0.571,0-1.035-0.464-1.035-1.036s0.464-1.035,1.035-1.035h2.158
				c0.572,0,1.036,0.463,1.036,1.035S272.219,280.837,271.646,280.837z"/>
		</g>
		<g>
			<linearGradient id="SVGID_18_" gradientUnits="userSpaceOnUse" x1="268.4531" y1="288.0625" x2="272.6826" y2="288.0625">
				<stop  offset="0" style="stop-color:#EEFBF4"/>
				<stop  offset="1" style="stop-color:#D0D9F2"/>
			</linearGradient>
			<path fill="url(#SVGID_18_)" d="M271.646,289.099h-2.158c-0.571,0-1.035-0.465-1.035-1.036c0-0.572,0.464-1.036,1.035-1.036
				h2.158c0.572,0,1.036,0.464,1.036,1.036C272.683,288.634,272.219,289.099,271.646,289.099z"/>
		</g>
		<g>
			<linearGradient id="SVGID_19_" gradientUnits="userSpaceOnUse" x1="268.4531" y1="296.3242" x2="272.6826" y2="296.3242">
				<stop  offset="0" style="stop-color:#EEFBF4"/>
				<stop  offset="1" style="stop-color:#D0D9F2"/>
			</linearGradient>
			<path fill="url(#SVGID_19_)" d="M271.646,297.359h-2.158c-0.571,0-1.035-0.464-1.035-1.036c0-0.571,0.464-1.035,1.035-1.035
				h2.158c0.572,0,1.036,0.464,1.036,1.035C272.683,296.896,272.219,297.359,271.646,297.359z"/>
		</g>
		<g>
			<linearGradient id="SVGID_20_" gradientUnits="userSpaceOnUse" x1="268.4531" y1="304.584" x2="272.6826" y2="304.584">
				<stop  offset="0" style="stop-color:#EEFBF4"/>
				<stop  offset="1" style="stop-color:#D0D9F2"/>
			</linearGradient>
			<path fill="url(#SVGID_20_)" d="M271.646,305.62h-2.158c-0.571,0-1.035-0.463-1.035-1.035s0.464-1.036,1.035-1.036h2.158
				c0.572,0,1.036,0.464,1.036,1.036S272.219,305.62,271.646,305.62z"/>
		</g>
		<g>
			<linearGradient id="SVGID_21_" gradientUnits="userSpaceOnUse" x1="268.4531" y1="312.8457" x2="272.6826" y2="312.8457">
				<stop  offset="0" style="stop-color:#EEFBF4"/>
				<stop  offset="1" style="stop-color:#D0D9F2"/>
			</linearGradient>
			<path fill="url(#SVGID_21_)" d="M271.646,313.882h-2.158c-0.571,0-1.035-0.465-1.035-1.036c0-0.572,0.464-1.035,1.035-1.035
				h2.158c0.572,0,1.036,0.463,1.036,1.035C272.683,313.417,272.219,313.882,271.646,313.882z"/>
		</g>
		<g>
			<linearGradient id="SVGID_22_" gradientUnits="userSpaceOnUse" x1="268.4531" y1="321.1074" x2="272.6826" y2="321.1074">
				<stop  offset="0" style="stop-color:#EEFBF4"/>
				<stop  offset="1" style="stop-color:#D0D9F2"/>
			</linearGradient>
			<path fill="url(#SVGID_22_)" d="M271.646,322.143h-2.158c-0.571,0-1.035-0.464-1.035-1.036c0-0.571,0.464-1.035,1.035-1.035
				h2.158c0.572,0,1.036,0.464,1.036,1.035C272.683,321.679,272.219,322.143,271.646,322.143z"/>
		</g>
		<g>
			<linearGradient id="SVGID_23_" gradientUnits="userSpaceOnUse" x1="268.4531" y1="329.3672" x2="272.6826" y2="329.3672">
				<stop  offset="0" style="stop-color:#EEFBF4"/>
				<stop  offset="1" style="stop-color:#D0D9F2"/>
			</linearGradient>
			<path fill="url(#SVGID_23_)" d="M271.646,330.403h-2.158c-0.571,0-1.035-0.463-1.035-1.035s0.464-1.036,1.035-1.036h2.158
				c0.572,0,1.036,0.464,1.036,1.036S272.219,330.403,271.646,330.403z"/>
		</g>
		<g>
			<linearGradient id="SVGID_24_" gradientUnits="userSpaceOnUse" x1="268.4531" y1="337.6289" x2="272.6826" y2="337.6289">
				<stop  offset="0" style="stop-color:#EEFBF4"/>
				<stop  offset="1" style="stop-color:#D0D9F2"/>
			</linearGradient>
			<path fill="url(#SVGID_24_)" d="M271.646,338.664h-2.158c-0.571,0-1.035-0.463-1.035-1.035s0.464-1.035,1.035-1.035h2.158
				c0.572,0,1.036,0.463,1.036,1.035S272.219,338.664,271.646,338.664z"/>
		</g>
		<g>
			<linearGradient id="SVGID_25_" gradientUnits="userSpaceOnUse" x1="268.4531" y1="345.8906" x2="272.6826" y2="345.8906">
				<stop  offset="0" style="stop-color:#EEFBF4"/>
				<stop  offset="1" style="stop-color:#D0D9F2"/>
			</linearGradient>
			<path fill="url(#SVGID_25_)" d="M271.646,346.926h-2.158c-0.571,0-1.035-0.464-1.035-1.035c0-0.572,0.464-1.036,1.035-1.036
				h2.158c0.572,0,1.036,0.464,1.036,1.036C272.683,346.462,272.219,346.926,271.646,346.926z"/>
		</g>
		<g>
			<linearGradient id="SVGID_26_" gradientUnits="userSpaceOnUse" x1="268.4531" y1="354.1504" x2="272.6826" y2="354.1504">
				<stop  offset="0" style="stop-color:#EEFBF4"/>
				<stop  offset="1" style="stop-color:#D0D9F2"/>
			</linearGradient>
			<path fill="url(#SVGID_26_)" d="M271.646,355.187h-2.158c-0.571,0-1.035-0.463-1.035-1.035s0.464-1.036,1.035-1.036h2.158
				c0.572,0,1.036,0.464,1.036,1.036S272.219,355.187,271.646,355.187z"/>
		</g>
		<g>
			<linearGradient id="SVGID_27_" gradientUnits="userSpaceOnUse" x1="280.0918" y1="263.2793" x2="300.5859" y2="263.2793">
				<stop  offset="0" style="stop-color:#EEFBF4"/>
				<stop  offset="1" style="stop-color:#D0D9F2"/>
			</linearGradient>
			<path fill="url(#SVGID_27_)" d="M299.551,264.314h-18.424c-0.572,0-1.035-0.463-1.035-1.035s0.463-1.035,1.035-1.035h18.424
				c0.571,0,1.035,0.463,1.035,1.035S300.122,264.314,299.551,264.314z"/>
		</g>
		<g>
			<linearGradient id="SVGID_28_" gradientUnits="userSpaceOnUse" x1="302.0928" y1="263.2788" x2="322.5879" y2="263.2788">
				<stop  offset="0" style="stop-color:#5EB4FA"/>
				<stop  offset="1" style="stop-color:#4677F1"/>
			</linearGradient>
			<path fill="url(#SVGID_28_)" d="M303.129,264.314c-0.572,0-1.036-0.463-1.036-1.035c0-0.571,0.464-1.035,1.036-1.035
				l18.423-0.001c0.572,0,1.036,0.464,1.036,1.035c0,0.572-0.464,1.036-1.036,1.036H303.129z"/>
		</g>
		<g>
			<linearGradient id="SVGID_29_" gradientUnits="userSpaceOnUse" x1="285.8154" y1="271.54" x2="312.3916" y2="271.54">
				<stop  offset="0" style="stop-color:#FDD46F"/>
				<stop  offset="1" style="stop-color:#FDAE4F"/>
			</linearGradient>
			<path fill="url(#SVGID_29_)" d="M311.356,272.575h-24.505c-0.572,0-1.036-0.463-1.036-1.035s0.464-1.035,1.036-1.035h24.505
				c0.571,0,1.035,0.463,1.035,1.035S311.928,272.575,311.356,272.575z"/>
		</g>
		<g>
			<linearGradient id="SVGID_30_" gradientUnits="userSpaceOnUse" x1="314.2559" y1="271.54" x2="327.7764" y2="271.54">
				<stop  offset="0" style="stop-color:#EEFBF4"/>
				<stop  offset="1" style="stop-color:#D0D9F2"/>
			</linearGradient>
			<path fill="url(#SVGID_30_)" d="M326.74,272.575h-11.448c-0.571,0-1.036-0.463-1.036-1.035s0.465-1.035,1.036-1.035h11.448
				c0.571,0,1.036,0.463,1.036,1.035S327.312,272.575,326.74,272.575z"/>
		</g>
		<g>
			<linearGradient id="SVGID_31_" gradientUnits="userSpaceOnUse" x1="328.9238" y1="271.54" x2="342.4424" y2="271.54">
				<stop  offset="0" style="stop-color:#5EB4FA"/>
				<stop  offset="1" style="stop-color:#4677F1"/>
			</linearGradient>
			<path fill="url(#SVGID_31_)" d="M341.408,272.575H329.96c-0.572,0-1.036-0.463-1.036-1.035s0.464-1.035,1.036-1.035h11.448
				c0.571,0,1.034,0.463,1.034,1.035S341.979,272.575,341.408,272.575z"/>
		</g>
		<g>
			<linearGradient id="SVGID_32_" gradientUnits="userSpaceOnUse" x1="290.6338" y1="279.8008" x2="306.4893" y2="279.8008">
				<stop  offset="0" style="stop-color:#EEFBF4"/>
				<stop  offset="1" style="stop-color:#D0D9F2"/>
			</linearGradient>
			<path fill="url(#SVGID_32_)" d="M305.454,280.837h-13.786c-0.57,0-1.034-0.464-1.034-1.036s0.464-1.035,1.034-1.035h13.786
				c0.571,0,1.035,0.463,1.035,1.035S306.025,280.837,305.454,280.837z"/>
		</g>
		<g>
			<linearGradient id="SVGID_33_" gradientUnits="userSpaceOnUse" x1="290.6338" y1="288.0625" x2="317.9375" y2="288.0625">
				<stop  offset="0" style="stop-color:#EEFBF4"/>
				<stop  offset="1" style="stop-color:#D0D9F2"/>
			</linearGradient>
			<path fill="url(#SVGID_33_)" d="M316.902,289.099h-25.234c-0.57,0-1.034-0.465-1.034-1.036c0-0.572,0.464-1.036,1.034-1.036
				h25.234c0.571,0,1.035,0.464,1.035,1.036C317.938,288.634,317.474,289.099,316.902,289.099z"/>
		</g>
		<g>
			<linearGradient id="SVGID_34_" gradientUnits="userSpaceOnUse" x1="319.2646" y1="288.0625" x2="337.6133" y2="288.0625">
				<stop  offset="0" style="stop-color:#FDD46F"/>
				<stop  offset="1" style="stop-color:#FDAE4F"/>
			</linearGradient>
			<path fill="url(#SVGID_34_)" d="M336.577,289.098H320.3c-0.571,0-1.035-0.464-1.035-1.035c0-0.572,0.464-1.036,1.035-1.036
				h16.277c0.572,0,1.036,0.464,1.036,1.036C337.613,288.634,337.149,289.098,336.577,289.098z"/>
		</g>
		<g>
			<linearGradient id="SVGID_35_" gradientUnits="userSpaceOnUse" x1="338.7617" y1="288.0625" x2="366.7695" y2="288.0625">
				<stop  offset="0" style="stop-color:#5EB4FA"/>
				<stop  offset="1" style="stop-color:#4677F1"/>
			</linearGradient>
			<path fill="url(#SVGID_35_)" d="M365.734,289.098h-25.938c-0.57,0-1.035-0.464-1.035-1.035c0-0.572,0.465-1.036,1.035-1.036
				h25.938c0.571,0,1.035,0.464,1.035,1.036C366.77,288.634,366.306,289.098,365.734,289.098z"/>
		</g>
		<g>
			<linearGradient id="SVGID_36_" gradientUnits="userSpaceOnUse" x1="297.6211" y1="296.3242" x2="318.4863" y2="296.3242">
				<stop  offset="0" style="stop-color:#FDD46F"/>
				<stop  offset="1" style="stop-color:#FDAE4F"/>
			</linearGradient>
			<path fill="url(#SVGID_36_)" d="M317.45,297.359h-18.794c-0.571,0-1.035-0.464-1.035-1.036c0-0.571,0.464-1.035,1.035-1.035
				h18.794c0.571,0,1.036,0.464,1.036,1.035C318.486,296.896,318.021,297.359,317.45,297.359z"/>
		</g>
		<g>
			<linearGradient id="SVGID_37_" gradientUnits="userSpaceOnUse" x1="319.0742" y1="296.3242" x2="339.9385" y2="296.3242">
				<stop  offset="0" style="stop-color:#EEFBF4"/>
				<stop  offset="1" style="stop-color:#D0D9F2"/>
			</linearGradient>
			<path fill="url(#SVGID_37_)" d="M338.904,297.359H320.11c-0.571,0-1.036-0.464-1.036-1.036c0-0.571,0.465-1.035,1.036-1.035
				h18.794c0.57,0,1.034,0.464,1.034,1.035C339.938,296.896,339.475,297.359,338.904,297.359z"/>
		</g>
		<g>
			<linearGradient id="SVGID_38_" gradientUnits="userSpaceOnUse" x1="290.6338" y1="304.584" x2="302.7324" y2="304.584">
				<stop  offset="0" style="stop-color:#EEFBF4"/>
				<stop  offset="1" style="stop-color:#D0D9F2"/>
			</linearGradient>
			<path fill="url(#SVGID_38_)" d="M301.697,305.62h-10.029c-0.57,0-1.034-0.463-1.034-1.035s0.464-1.036,1.034-1.036h10.029
				c0.571,0,1.035,0.464,1.035,1.036S302.269,305.62,301.697,305.62z"/>
		</g>
		<g>
			<linearGradient id="SVGID_39_" gradientUnits="userSpaceOnUse" x1="303.6914" y1="304.584" x2="315.791" y2="304.584">
				<stop  offset="0" style="stop-color:#EEFBF4"/>
				<stop  offset="1" style="stop-color:#D0D9F2"/>
			</linearGradient>
			<path fill="url(#SVGID_39_)" d="M314.755,305.62h-10.027c-0.572,0-1.036-0.463-1.036-1.035s0.464-1.036,1.036-1.036h10.027
				c0.573,0,1.036,0.464,1.036,1.036S315.328,305.62,314.755,305.62z"/>
		</g>
		<g>
			<linearGradient id="SVGID_40_" gradientUnits="userSpaceOnUse" x1="316.749" y1="304.584" x2="346.1992" y2="304.584">
				<stop  offset="0" style="stop-color:#5EB4FA"/>
				<stop  offset="1" style="stop-color:#4677F1"/>
			</linearGradient>
			<path fill="url(#SVGID_40_)" d="M345.163,305.62h-27.379c-0.571,0-1.035-0.463-1.035-1.035s0.464-1.036,1.035-1.036h27.379
				c0.572,0,1.036,0.464,1.036,1.036S345.735,305.62,345.163,305.62z"/>
		</g>
		<g>
			<linearGradient id="SVGID_41_" gradientUnits="userSpaceOnUse" x1="347.3359" y1="304.584" x2="359.4365" y2="304.584">
				<stop  offset="0" style="stop-color:#FDD46F"/>
				<stop  offset="1" style="stop-color:#FDAE4F"/>
			</linearGradient>
			<path fill="url(#SVGID_41_)" d="M358.4,305.62h-10.028c-0.571,0-1.036-0.463-1.036-1.035s0.465-1.036,1.036-1.036H358.4
				c0.572,0,1.036,0.464,1.036,1.036S358.973,305.62,358.4,305.62z"/>
		</g>
		<g>
			<linearGradient id="SVGID_42_" gradientUnits="userSpaceOnUse" x1="297.6211" y1="312.8457" x2="317.4121" y2="312.8457">
				<stop  offset="0" style="stop-color:#5EB4FA"/>
				<stop  offset="1" style="stop-color:#4677F1"/>
			</linearGradient>
			<path fill="url(#SVGID_42_)" d="M316.377,313.882h-17.721c-0.571,0-1.035-0.465-1.035-1.036c0-0.572,0.464-1.035,1.035-1.035
				h17.721c0.571,0,1.035,0.463,1.035,1.035C317.412,313.417,316.948,313.882,316.377,313.882z"/>
		</g>
		<g>
			<linearGradient id="SVGID_43_" gradientUnits="userSpaceOnUse" x1="297.6211" y1="321.1074" x2="331.3643" y2="321.1074">
				<stop  offset="0" style="stop-color:#EEFBF4"/>
				<stop  offset="1" style="stop-color:#D0D9F2"/>
			</linearGradient>
			<path fill="url(#SVGID_43_)" d="M330.33,322.143h-31.674c-0.571,0-1.035-0.464-1.035-1.036c0-0.571,0.464-1.035,1.035-1.035
				h31.674c0.57,0,1.034,0.464,1.034,1.035C331.364,321.679,330.9,322.143,330.33,322.143z"/>
		</g>
		<g>
			<linearGradient id="SVGID_44_" gradientUnits="userSpaceOnUse" x1="332.1563" y1="321.1074" x2="352.1143" y2="321.1074">
				<stop  offset="0" style="stop-color:#FDD46F"/>
				<stop  offset="1" style="stop-color:#FDAE4F"/>
			</linearGradient>
			<path fill="url(#SVGID_44_)" d="M351.078,322.143h-17.887c-0.572,0-1.035-0.464-1.035-1.036c0-0.571,0.463-1.035,1.035-1.035
				h17.887c0.572,0,1.036,0.464,1.036,1.035C352.114,321.679,351.65,322.143,351.078,322.143z"/>
		</g>
		<g>
			<linearGradient id="SVGID_45_" gradientUnits="userSpaceOnUse" x1="290.6338" y1="329.3672" x2="310.7822" y2="329.3672">
				<stop  offset="0" style="stop-color:#5EB4FA"/>
				<stop  offset="1" style="stop-color:#4677F1"/>
			</linearGradient>
			<path fill="url(#SVGID_45_)" d="M309.746,330.403h-18.078c-0.57,0-1.034-0.463-1.034-1.035s0.464-1.036,1.034-1.036h18.078
				c0.571,0,1.036,0.464,1.036,1.036S310.317,330.403,309.746,330.403z"/>
		</g>
		<g>
			<linearGradient id="SVGID_46_" gradientUnits="userSpaceOnUse" x1="297.6211" y1="337.6289" x2="311.3311" y2="337.6289">
				<stop  offset="0" style="stop-color:#FDD46F"/>
				<stop  offset="1" style="stop-color:#FDAE4F"/>
			</linearGradient>
			<path fill="url(#SVGID_46_)" d="M310.295,338.664h-11.639c-0.571,0-1.035-0.463-1.035-1.035s0.464-1.035,1.035-1.035h11.639
				c0.572,0,1.036,0.463,1.036,1.035S310.867,338.664,310.295,338.664z"/>
		</g>
		<g>
			<linearGradient id="SVGID_47_" gradientUnits="userSpaceOnUse" x1="312.4678" y1="337.6289" x2="333.8564" y2="337.6289">
				<stop  offset="0" style="stop-color:#EEFBF4"/>
				<stop  offset="1" style="stop-color:#D0D9F2"/>
			</linearGradient>
			<path fill="url(#SVGID_47_)" d="M332.821,338.664h-19.318c-0.572,0-1.035-0.463-1.035-1.035s0.463-1.035,1.035-1.035h19.318
				c0.571,0,1.035,0.463,1.035,1.035S333.393,338.664,332.821,338.664z"/>
		</g>
		<g>
			<linearGradient id="SVGID_48_" gradientUnits="userSpaceOnUse" x1="285.8154" y1="345.8906" x2="300.2412" y2="345.8906">
				<stop  offset="0" style="stop-color:#EEFBF4"/>
				<stop  offset="1" style="stop-color:#D0D9F2"/>
			</linearGradient>
			<path fill="url(#SVGID_48_)" d="M299.204,346.926h-12.353c-0.572,0-1.036-0.464-1.036-1.035c0-0.572,0.464-1.036,1.036-1.036
				h12.353c0.572,0,1.037,0.464,1.037,1.036C300.241,346.462,299.776,346.926,299.204,346.926z"/>
		</g>
		<g>
			<linearGradient id="SVGID_49_" gradientUnits="userSpaceOnUse" x1="301.5322" y1="345.8906" x2="332.2354" y2="345.8906">
				<stop  offset="0" style="stop-color:#5EB4FA"/>
				<stop  offset="1" style="stop-color:#4677F1"/>
			</linearGradient>
			<path fill="url(#SVGID_49_)" d="M331.199,346.926h-28.631c-0.572,0-1.036-0.464-1.036-1.035c0-0.572,0.464-1.036,1.036-1.036
				h28.631c0.572,0,1.036,0.464,1.036,1.036C332.235,346.462,331.771,346.926,331.199,346.926z"/>
		</g>
		<g>
			<linearGradient id="SVGID_50_" gradientUnits="userSpaceOnUse" x1="290.6338" y1="354.1504" x2="312.5713" y2="354.1504">
				<stop  offset="0" style="stop-color:#EEFBF4"/>
				<stop  offset="1" style="stop-color:#D0D9F2"/>
			</linearGradient>
			<path fill="url(#SVGID_50_)" d="M311.535,355.187h-19.867c-0.57,0-1.034-0.463-1.034-1.035s0.464-1.036,1.034-1.036h19.867
				c0.571,0,1.036,0.464,1.036,1.036S312.106,355.187,311.535,355.187z"/>
		</g>
	</g>
</g>
</svg>
