<svg xmlns="http://www.w3.org/2000/svg" version="1.1" xmlns:xlink="http://www.w3.org/1999/xlink" xmlns:svgjs="http://svgjs.com/svgjs" width="1440" height="560" preserveAspectRatio="none" viewBox="0 0 1440 560"><g mask="url(&quot;#SvgjsMask1014&quot;)" fill="none"><rect width="1440" height="560" x="0" y="0" fill="url(#SvgjsLinearGradient1015)"></rect><path d="M-105.11 395.67L-105.11 395.67" stroke="rgba(19, 46, 101, 1)" stroke-width="1.5"></path><path d="M-105.11 395.67L-72.38 514.48" stroke="rgba(19, 46, 101, 1)" stroke-width="1.5"></path><path d="M-105.11 395.67L43.83 491.59" stroke="rgba(19, 46, 101, 1)" stroke-width="1.5"></path><path d="M-105.11 395.67L85.49 664.94" stroke="rgba(19, 46, 101, 1)" stroke-width="1.5"></path><path d="M-72.38 514.48L-72.38 514.48" stroke="rgba(19, 46, 101, 1)" stroke-width="1.5"></path><path d="M-72.38 514.48L43.83 491.59" stroke="rgba(19, 46, 101, 1)" stroke-width="1.5"></path><path d="M-72.38 514.48L85.49 664.94" stroke="rgba(19, 46, 101, 1)" stroke-width="1.5"></path><path d="M-72.38 514.48L236.56 533.74" stroke="rgba(19, 46, 101, 1)" stroke-width="1.5"></path><path d="M-72.38 514.48L209.48 711.3" stroke="rgba(19, 46, 101, 1)" stroke-width="1.5"></path><path d="M-72.38 514.48L258.1 386.68" stroke="rgba(19, 46, 101, 1)" stroke-width="1.5"></path><path d="M43.83 491.59L43.83 491.59" stroke="rgba(19, 46, 101, 1)" stroke-width="1.5"></path><path d="M85.49 664.94L85.49 664.94" stroke="rgba(19, 46, 101, 1)" stroke-width="1.5"></path><path d="M85.49 664.94L209.48 711.3" stroke="rgba(19, 46, 101, 1)" stroke-width="1.5"></path><path d="M85.49 664.94L43.83 491.59" stroke="rgba(19, 46, 101, 1)" stroke-width="1.5"></path><path d="M85.49 664.94L236.56 533.74" stroke="rgba(19, 46, 101, 1)" stroke-width="1.5"></path><path d="M85.49 664.94L390.14 641.05" stroke="rgba(19, 46, 101, 1)" stroke-width="1.5"></path><path d="M85.49 664.94L258.1 386.68" stroke="rgba(19, 46, 101, 1)" stroke-width="1.5"></path><path d="M258.1 386.68L258.1 386.68" stroke="rgba(19, 46, 101, 1)" stroke-width="1.5"></path><path d="M258.1 386.68L385.43 387.54" stroke="rgba(19, 46, 101, 1)" stroke-width="1.5"></path><path d="M258.1 386.68L236.56 533.74" stroke="rgba(19, 46, 101, 1)" stroke-width="1.5"></path><path d="M258.1 386.68L43.83 491.59" stroke="rgba(19, 46, 101, 1)" stroke-width="1.5"></path><path d="M258.1 386.68L535.73 350.1" stroke="rgba(19, 46, 101, 1)" stroke-width="1.5"></path><path d="M236.56 533.74L236.56 533.74" stroke="rgba(19, 46, 101, 1)" stroke-width="1.5"></path><path d="M236.56 533.74L209.48 711.3" stroke="rgba(19, 46, 101, 1)" stroke-width="1.5"></path><path d="M236.56 533.74L390.14 641.05" stroke="rgba(19, 46, 101, 1)" stroke-width="1.5"></path><path d="M236.56 533.74L43.83 491.59" stroke="rgba(19, 46, 101, 1)" stroke-width="1.5"></path><path d="M209.48 711.3L209.48 711.3" stroke="rgba(19, 46, 101, 1)" stroke-width="1.5"></path><path d="M209.48 711.3L390.14 641.05" stroke="rgba(19, 46, 101, 1)" stroke-width="1.5"></path><path d="M385.43 387.54L385.43 387.54" stroke="rgba(19, 46, 101, 1)" stroke-width="1.5"></path><path d="M385.43 387.54L535.73 350.1" stroke="rgba(19, 46, 101, 1)" stroke-width="1.5"></path><path d="M385.43 387.54L558.85 493.96" stroke="rgba(19, 46, 101, 1)" stroke-width="1.5"></path><path d="M385.43 387.54L236.56 533.74" stroke="rgba(19, 46, 101, 1)" stroke-width="1.5"></path><path d="M390.14 641.05L390.14 641.05" stroke="rgba(19, 46, 101, 1)" stroke-width="1.5"></path><path d="M390.14 641.05L500.61 690.25" stroke="rgba(19, 46, 101, 1)" stroke-width="1.5"></path><path d="M390.14 641.05L558.85 493.96" stroke="rgba(19, 46, 101, 1)" stroke-width="1.5"></path><path d="M390.14 641.05L385.43 387.54" stroke="rgba(19, 46, 101, 1)" stroke-width="1.5"></path><path d="M390.14 641.05L673.89 666.9" stroke="rgba(19, 46, 101, 1)" stroke-width="1.5"></path><path d="M535.73 350.1L535.73 350.1" stroke="rgba(19, 46, 101, 1)" stroke-width="1.5"></path><path d="M535.73 350.1L558.85 493.96" stroke="rgba(19, 46, 101, 1)" stroke-width="1.5"></path><path d="M535.73 350.1L707.22 393.53" stroke="rgba(19, 46, 101, 1)" stroke-width="1.5"></path><path d="M535.73 350.1L675.72 490.28" stroke="rgba(19, 46, 101, 1)" stroke-width="1.5"></path><path d="M558.85 493.96L558.85 493.96" stroke="rgba(19, 46, 101, 1)" stroke-width="1.5"></path><path d="M558.85 493.96L675.72 490.28" stroke="rgba(19, 46, 101, 1)" stroke-width="1.5"></path><path d="M558.85 493.96L707.22 393.53" stroke="rgba(19, 46, 101, 1)" stroke-width="1.5"></path><path d="M558.85 493.96L500.61 690.25" stroke="rgba(19, 46, 101, 1)" stroke-width="1.5"></path><path d="M558.85 493.96L673.89 666.9" stroke="rgba(19, 46, 101, 1)" stroke-width="1.5"></path><path d="M500.61 690.25L500.61 690.25" stroke="rgba(19, 46, 101, 1)" stroke-width="1.5"></path><path d="M500.61 690.25L673.89 666.9" stroke="rgba(19, 46, 101, 1)" stroke-width="1.5"></path><path d="M707.22 393.53L707.22 393.53" stroke="rgba(19, 46, 101, 1)" stroke-width="1.5"></path><path d="M707.22 393.53L675.72 490.28" stroke="rgba(19, 46, 101, 1)" stroke-width="1.5"></path><path d="M707.22 393.53L845.69 395.25" stroke="rgba(19, 46, 101, 1)" stroke-width="1.5"></path><path d="M707.22 393.53L832.68 517.11" stroke="rgba(19, 46, 101, 1)" stroke-width="1.5"></path><path d="M707.22 393.53L832.18 195.59" stroke="rgba(19, 46, 101, 1)" stroke-width="1.5"></path><path d="M675.72 490.28L675.72 490.28" stroke="rgba(19, 46, 101, 1)" stroke-width="1.5"></path><path d="M675.72 490.28L832.68 517.11" stroke="rgba(19, 46, 101, 1)" stroke-width="1.5"></path><path d="M675.72 490.28L673.89 666.9" stroke="rgba(19, 46, 101, 1)" stroke-width="1.5"></path><path d="M675.72 490.28L845.69 395.25" stroke="rgba(19, 46, 101, 1)" stroke-width="1.5"></path><path d="M673.89 666.9L673.89 666.9" stroke="rgba(19, 46, 101, 1)" stroke-width="1.5"></path><path d="M673.89 666.9L790.55 684.58" stroke="rgba(19, 46, 101, 1)" stroke-width="1.5"></path><path d="M832.18 195.59L832.18 195.59" stroke="rgba(19, 46, 101, 1)" stroke-width="1.5"></path><path d="M832.18 195.59L987.03 255.71" stroke="rgba(19, 46, 101, 1)" stroke-width="1.5"></path><path d="M832.18 195.59L845.69 395.25" stroke="rgba(19, 46, 101, 1)" stroke-width="1.5"></path><path d="M832.18 195.59L984.85 49.55" stroke="rgba(19, 46, 101, 1)" stroke-width="1.5"></path><path d="M845.69 395.25L845.69 395.25" stroke="rgba(19, 46, 101, 1)" stroke-width="1.5"></path><path d="M845.69 395.25L832.68 517.11" stroke="rgba(19, 46, 101, 1)" stroke-width="1.5"></path><path d="M845.69 395.25L992.04 382.75" stroke="rgba(19, 46, 101, 1)" stroke-width="1.5"></path><path d="M832.68 517.11L832.68 517.11" stroke="rgba(19, 46, 101, 1)" stroke-width="1.5"></path><path d="M832.68 517.11L978.09 518.41" stroke="rgba(19, 46, 101, 1)" stroke-width="1.5"></path><path d="M832.68 517.11L790.55 684.58" stroke="rgba(19, 46, 101, 1)" stroke-width="1.5"></path><path d="M832.68 517.11L992.04 382.75" stroke="rgba(19, 46, 101, 1)" stroke-width="1.5"></path><path d="M790.55 684.58L790.55 684.58" stroke="rgba(19, 46, 101, 1)" stroke-width="1.5"></path><path d="M790.55 684.58L675.72 490.28" stroke="rgba(19, 46, 101, 1)" stroke-width="1.5"></path><path d="M790.55 684.58L978.09 518.41" stroke="rgba(19, 46, 101, 1)" stroke-width="1.5"></path><path d="M951.72 -50.55L951.72 -50.55" stroke="rgba(19, 46, 101, 1)" stroke-width="1.5"></path><path d="M951.72 -50.55L984.85 49.55" stroke="rgba(19, 46, 101, 1)" stroke-width="1.5"></path><path d="M951.72 -50.55L1118.42 -81.27" stroke="rgba(19, 46, 101, 1)" stroke-width="1.5"></path><path d="M984.85 49.55L984.85 49.55" stroke="rgba(19, 46, 101, 1)" stroke-width="1.5"></path><path d="M984.85 49.55L1104.12 81.65" stroke="rgba(19, 46, 101, 1)" stroke-width="1.5"></path><path d="M984.85 49.55L1118.42 -81.27" stroke="rgba(19, 46, 101, 1)" stroke-width="1.5"></path><path d="M984.85 49.55L987.03 255.71" stroke="rgba(19, 46, 101, 1)" stroke-width="1.5"></path><path d="M987.03 255.71L987.03 255.71" stroke="rgba(19, 46, 101, 1)" stroke-width="1.5"></path><path d="M987.03 255.71L1110.36 260.31" stroke="rgba(19, 46, 101, 1)" stroke-width="1.5"></path><path d="M987.03 255.71L992.04 382.75" stroke="rgba(19, 46, 101, 1)" stroke-width="1.5"></path><path d="M992.04 382.75L992.04 382.75" stroke="rgba(19, 46, 101, 1)" stroke-width="1.5"></path><path d="M992.04 382.75L1126.45 394.19" stroke="rgba(19, 46, 101, 1)" stroke-width="1.5"></path><path d="M992.04 382.75L978.09 518.41" stroke="rgba(19, 46, 101, 1)" stroke-width="1.5"></path><path d="M978.09 518.41L978.09 518.41" stroke="rgba(19, 46, 101, 1)" stroke-width="1.5"></path><path d="M978.09 518.41L1111.68 541.77" stroke="rgba(19, 46, 101, 1)" stroke-width="1.5"></path><path d="M978.09 518.41L845.69 395.25" stroke="rgba(19, 46, 101, 1)" stroke-width="1.5"></path><path d="M1118.42 -81.27L1118.42 -81.27" stroke="rgba(19, 46, 101, 1)" stroke-width="1.5"></path><path d="M1118.42 -81.27L1248.66 -62.28" stroke="rgba(19, 46, 101, 1)" stroke-width="1.5"></path><path d="M1118.42 -81.27L1104.12 81.65" stroke="rgba(19, 46, 101, 1)" stroke-width="1.5"></path><path d="M1104.12 81.65L1104.12 81.65" stroke="rgba(19, 46, 101, 1)" stroke-width="1.5"></path><path d="M1104.12 81.65L1255.11 60.04" stroke="rgba(19, 46, 101, 1)" stroke-width="1.5"></path><path d="M1104.12 81.65L1110.36 260.31" stroke="rgba(19, 46, 101, 1)" stroke-width="1.5"></path><path d="M1104.12 81.65L951.72 -50.55" stroke="rgba(19, 46, 101, 1)" stroke-width="1.5"></path><path d="M1104.12 81.65L1248.66 -62.28" stroke="rgba(19, 46, 101, 1)" stroke-width="1.5"></path><path d="M1110.36 260.31L1110.36 260.31" stroke="rgba(19, 46, 101, 1)" stroke-width="1.5"></path><path d="M1110.36 260.31L1126.45 394.19" stroke="rgba(19, 46, 101, 1)" stroke-width="1.5"></path><path d="M1110.36 260.31L1248.09 243.17" stroke="rgba(19, 46, 101, 1)" stroke-width="1.5"></path><path d="M1110.36 260.31L992.04 382.75" stroke="rgba(19, 46, 101, 1)" stroke-width="1.5"></path><path d="M1126.45 394.19L1126.45 394.19" stroke="rgba(19, 46, 101, 1)" stroke-width="1.5"></path><path d="M1126.45 394.19L1270.98 375.77" stroke="rgba(19, 46, 101, 1)" stroke-width="1.5"></path><path d="M1126.45 394.19L1111.68 541.77" stroke="rgba(19, 46, 101, 1)" stroke-width="1.5"></path><path d="M1111.68 541.77L1111.68 541.77" stroke="rgba(19, 46, 101, 1)" stroke-width="1.5"></path><path d="M1111.68 541.77L1127.15 669.22" stroke="rgba(19, 46, 101, 1)" stroke-width="1.5"></path><path d="M1111.68 541.77L1290 547.82" stroke="rgba(19, 46, 101, 1)" stroke-width="1.5"></path><path d="M1111.68 541.77L1238.81 694.1" stroke="rgba(19, 46, 101, 1)" stroke-width="1.5"></path><path d="M1111.68 541.77L992.04 382.75" stroke="rgba(19, 46, 101, 1)" stroke-width="1.5"></path><path d="M1127.15 669.22L1127.15 669.22" stroke="rgba(19, 46, 101, 1)" stroke-width="1.5"></path><path d="M1127.15 669.22L1238.81 694.1" stroke="rgba(19, 46, 101, 1)" stroke-width="1.5"></path><path d="M1248.66 -62.28L1248.66 -62.28" stroke="rgba(19, 46, 101, 1)" stroke-width="1.5"></path><path d="M1248.66 -62.28L1255.11 60.04" stroke="rgba(19, 46, 101, 1)" stroke-width="1.5"></path><path d="M1248.66 -62.28L1406.21 -40.74" stroke="rgba(19, 46, 101, 1)" stroke-width="1.5"></path><path d="M1248.66 -62.28L1400.87 44.55" stroke="rgba(19, 46, 101, 1)" stroke-width="1.5"></path><path d="M1255.11 60.04L1255.11 60.04" stroke="rgba(19, 46, 101, 1)" stroke-width="1.5"></path><path d="M1255.11 60.04L1400.87 44.55" stroke="rgba(19, 46, 101, 1)" stroke-width="1.5"></path><path d="M1248.09 243.17L1248.09 243.17" stroke="rgba(19, 46, 101, 1)" stroke-width="1.5"></path><path d="M1248.09 243.17L1270.98 375.77" stroke="rgba(19, 46, 101, 1)" stroke-width="1.5"></path><path d="M1248.09 243.17L1391.27 259.19" stroke="rgba(19, 46, 101, 1)" stroke-width="1.5"></path><path d="M1248.09 243.17L1255.11 60.04" stroke="rgba(19, 46, 101, 1)" stroke-width="1.5"></path><path d="M1248.09 243.17L1126.45 394.19" stroke="rgba(19, 46, 101, 1)" stroke-width="1.5"></path><path d="M1248.09 243.17L1394.83 374.2" stroke="rgba(19, 46, 101, 1)" stroke-width="1.5"></path><path d="M1270.98 375.77L1270.98 375.77" stroke="rgba(19, 46, 101, 1)" stroke-width="1.5"></path><path d="M1270.98 375.77L1394.83 374.2" stroke="rgba(19, 46, 101, 1)" stroke-width="1.5"></path><path d="M1270.98 375.77L1391.27 259.19" stroke="rgba(19, 46, 101, 1)" stroke-width="1.5"></path><path d="M1290 547.82L1290 547.82" stroke="rgba(19, 46, 101, 1)" stroke-width="1.5"></path><path d="M1290 547.82L1414.3 510.45" stroke="rgba(19, 46, 101, 1)" stroke-width="1.5"></path><path d="M1290 547.82L1238.81 694.1" stroke="rgba(19, 46, 101, 1)" stroke-width="1.5"></path><path d="M1290 547.82L1270.98 375.77" stroke="rgba(19, 46, 101, 1)" stroke-width="1.5"></path><path d="M1290 547.82L1436.01 666.69" stroke="rgba(19, 46, 101, 1)" stroke-width="1.5"></path><path d="M1238.81 694.1L1238.81 694.1" stroke="rgba(19, 46, 101, 1)" stroke-width="1.5"></path><path d="M1406.21 -40.74L1406.21 -40.74" stroke="rgba(19, 46, 101, 1)" stroke-width="1.5"></path><path d="M1406.21 -40.74L1400.87 44.55" stroke="rgba(19, 46, 101, 1)" stroke-width="1.5"></path><path d="M1406.21 -40.74L1552.49 -57.48" stroke="rgba(19, 46, 101, 1)" stroke-width="1.5"></path><path d="M1406.21 -40.74L1255.11 60.04" stroke="rgba(19, 46, 101, 1)" stroke-width="1.5"></path><path d="M1406.21 -40.74L1609.02 78.28" stroke="rgba(19, 46, 101, 1)" stroke-width="1.5"></path><path d="M1400.87 44.55L1400.87 44.55" stroke="rgba(19, 46, 101, 1)" stroke-width="1.5"></path><path d="M1400.87 44.55L1552.49 -57.48" stroke="rgba(19, 46, 101, 1)" stroke-width="1.5"></path><path d="M1400.87 44.55L1609.02 78.28" stroke="rgba(19, 46, 101, 1)" stroke-width="1.5"></path><path d="M1400.87 44.55L1391.27 259.19" stroke="rgba(19, 46, 101, 1)" stroke-width="1.5"></path><path d="M1391.27 259.19L1391.27 259.19" stroke="rgba(19, 46, 101, 1)" stroke-width="1.5"></path><path d="M1391.27 259.19L1394.83 374.2" stroke="rgba(19, 46, 101, 1)" stroke-width="1.5"></path><path d="M1394.83 374.2L1394.83 374.2" stroke="rgba(19, 46, 101, 1)" stroke-width="1.5"></path><path d="M1394.83 374.2L1414.3 510.45" stroke="rgba(19, 46, 101, 1)" stroke-width="1.5"></path><path d="M1394.83 374.2L1290 547.82" stroke="rgba(19, 46, 101, 1)" stroke-width="1.5"></path><path d="M1414.3 510.45L1414.3 510.45" stroke="rgba(19, 46, 101, 1)" stroke-width="1.5"></path><path d="M1414.3 510.45L1436.01 666.69" stroke="rgba(19, 46, 101, 1)" stroke-width="1.5"></path><path d="M1414.3 510.45L1270.98 375.77" stroke="rgba(19, 46, 101, 1)" stroke-width="1.5"></path><path d="M1436.01 666.69L1436.01 666.69" stroke="rgba(19, 46, 101, 1)" stroke-width="1.5"></path><path d="M1436.01 666.69L1604.53 646.16" stroke="rgba(19, 46, 101, 1)" stroke-width="1.5"></path><path d="M1436.01 666.69L1238.81 694.1" stroke="rgba(19, 46, 101, 1)" stroke-width="1.5"></path><path d="M1552.49 -57.48L1552.49 -57.48" stroke="rgba(19, 46, 101, 1)" stroke-width="1.5"></path><path d="M1552.49 -57.48L1609.02 78.28" stroke="rgba(19, 46, 101, 1)" stroke-width="1.5"></path><path d="M1552.49 -57.48L1553.25 201.88" stroke="rgba(19, 46, 101, 1)" stroke-width="1.5"></path><path d="M1609.02 78.28L1609.02 78.28" stroke="rgba(19, 46, 101, 1)" stroke-width="1.5"></path><path d="M1609.02 78.28L1553.25 201.88" stroke="rgba(19, 46, 101, 1)" stroke-width="1.5"></path><path d="M1609.02 78.28L1391.27 259.19" stroke="rgba(19, 46, 101, 1)" stroke-width="1.5"></path><path d="M1553.25 201.88L1553.25 201.88" stroke="rgba(19, 46, 101, 1)" stroke-width="1.5"></path><path d="M1553.25 201.88L1391.27 259.19" stroke="rgba(19, 46, 101, 1)" stroke-width="1.5"></path><path d="M1553.25 201.88L1609.02 399.31" stroke="rgba(19, 46, 101, 1)" stroke-width="1.5"></path><path d="M1553.25 201.88L1400.87 44.55" stroke="rgba(19, 46, 101, 1)" stroke-width="1.5"></path><path d="M1553.25 201.88L1394.83 374.2" stroke="rgba(19, 46, 101, 1)" stroke-width="1.5"></path><path d="M1609.02 399.31L1609.02 399.31" stroke="rgba(19, 46, 101, 1)" stroke-width="1.5"></path><path d="M1609.02 399.31L1394.83 374.2" stroke="rgba(19, 46, 101, 1)" stroke-width="1.5"></path><path d="M1604.53 646.16L1604.53 646.16" stroke="rgba(19, 46, 101, 1)" stroke-width="1.5"></path><path d="M1604.53 646.16L1414.3 510.45" stroke="rgba(19, 46, 101, 1)" stroke-width="1.5"></path><path d="M1604.53 646.16L1609.02 399.31" stroke="rgba(19, 46, 101, 1)" stroke-width="1.5"></path><path d="M1604.53 646.16L1290 547.82" stroke="rgba(19, 46, 101, 1)" stroke-width="1.5"></path><path d="M1604.53 646.16L1394.83 374.2" stroke="rgba(19, 46, 101, 1)" stroke-width="1.5"></path><path d="M1604.53 646.16L1238.81 694.1" stroke="rgba(19, 46, 101, 1)" stroke-width="1.5"></path><circle r="5" cx="-105.11" cy="395.67" fill="rgba(19, 46, 101, 1)"></circle><circle r="5" cx="-72.38" cy="514.48" fill="rgba(19, 46, 101, 1)"></circle><circle r="5" cx="43.83" cy="491.59" fill="rgba(19, 46, 101, 1)"></circle><circle r="5" cx="85.49" cy="664.94" fill="rgba(19, 46, 101, 1)"></circle><circle r="5" cx="258.1" cy="386.68" fill="rgba(19, 46, 101, 1)"></circle><circle r="5" cx="236.56" cy="533.74" fill="rgba(19, 46, 101, 1)"></circle><circle r="5" cx="209.48" cy="711.3" fill="rgba(19, 46, 101, 1)"></circle><circle r="5" cx="385.43" cy="387.54" fill="rgba(19, 46, 101, 1)"></circle><circle r="5" cx="390.14" cy="641.05" fill="rgba(19, 46, 101, 1)"></circle><circle r="5" cx="535.73" cy="350.1" fill="rgba(19, 46, 101, 1)"></circle><circle r="5" cx="558.85" cy="493.96" fill="rgba(19, 46, 101, 1)"></circle><circle r="5" cx="500.61" cy="690.25" fill="rgba(19, 46, 101, 1)"></circle><circle r="5" cx="707.22" cy="393.53" fill="rgba(19, 46, 101, 1)"></circle><circle r="5" cx="675.72" cy="490.28" fill="rgba(19, 46, 101, 1)"></circle><circle r="5" cx="673.89" cy="666.9" fill="rgba(19, 46, 101, 1)"></circle><circle r="5" cx="832.18" cy="195.59" fill="rgba(19, 46, 101, 1)"></circle><circle r="5" cx="845.69" cy="395.25" fill="rgba(19, 46, 101, 1)"></circle><circle r="5" cx="832.68" cy="517.11" fill="rgba(19, 46, 101, 1)"></circle><circle r="5" cx="790.55" cy="684.58" fill="rgba(19, 46, 101, 1)"></circle><circle r="5" cx="951.72" cy="-50.55" fill="rgba(19, 46, 101, 1)"></circle><circle r="5" cx="984.85" cy="49.55" fill="rgba(19, 46, 101, 1)"></circle><circle r="5" cx="987.03" cy="255.71" fill="rgba(19, 46, 101, 1)"></circle><circle r="5" cx="992.04" cy="382.75" fill="rgba(19, 46, 101, 1)"></circle><circle r="5" cx="978.09" cy="518.41" fill="rgba(19, 46, 101, 1)"></circle><circle r="5" cx="1118.42" cy="-81.27" fill="rgba(19, 46, 101, 1)"></circle><circle r="5" cx="1104.12" cy="81.65" fill="rgba(19, 46, 101, 1)"></circle><circle r="5" cx="1110.36" cy="260.31" fill="rgba(19, 46, 101, 1)"></circle><circle r="5" cx="1126.45" cy="394.19" fill="rgba(19, 46, 101, 1)"></circle><circle r="5" cx="1111.68" cy="541.77" fill="rgba(19, 46, 101, 1)"></circle><circle r="5" cx="1127.15" cy="669.22" fill="rgba(19, 46, 101, 1)"></circle><circle r="5" cx="1248.66" cy="-62.28" fill="rgba(19, 46, 101, 1)"></circle><circle r="5" cx="1255.11" cy="60.04" fill="rgba(19, 46, 101, 1)"></circle><circle r="5" cx="1248.09" cy="243.17" fill="rgba(19, 46, 101, 1)"></circle><circle r="5" cx="1270.98" cy="375.77" fill="rgba(19, 46, 101, 1)"></circle><circle r="5" cx="1290" cy="547.82" fill="rgba(19, 46, 101, 1)"></circle><circle r="5" cx="1238.81" cy="694.1" fill="rgba(19, 46, 101, 1)"></circle><circle r="5" cx="1406.21" cy="-40.74" fill="rgba(19, 46, 101, 1)"></circle><circle r="5" cx="1400.87" cy="44.55" fill="rgba(19, 46, 101, 1)"></circle><circle r="5" cx="1391.27" cy="259.19" fill="rgba(19, 46, 101, 1)"></circle><circle r="5" cx="1394.83" cy="374.2" fill="rgba(19, 46, 101, 1)"></circle><circle r="5" cx="1414.3" cy="510.45" fill="rgba(19, 46, 101, 1)"></circle><circle r="5" cx="1436.01" cy="666.69" fill="rgba(19, 46, 101, 1)"></circle><circle r="5" cx="1552.49" cy="-57.48" fill="rgba(19, 46, 101, 1)"></circle><circle r="5" cx="1609.02" cy="78.28" fill="rgba(19, 46, 101, 1)"></circle><circle r="5" cx="1553.25" cy="201.88" fill="rgba(19, 46, 101, 1)"></circle><circle r="5" cx="1609.02" cy="399.31" fill="rgba(19, 46, 101, 1)"></circle><circle r="5" cx="1604.53" cy="646.16" fill="rgba(19, 46, 101, 1)"></circle><path d="M-95.36 644.75L-95.36 644.75" stroke="hsl(214.79999999999995, 93.5%, 39%)" stroke-width="1.5"></path><path d="M-95.36 644.75L-56.49 520.84" stroke="hsl(214.79999999999995, 93.5%, 39%)" stroke-width="1.5"></path><path d="M-95.36 644.75L41.97 562.29" stroke="hsl(214.79999999999995, 93.5%, 39%)" stroke-width="1.5"></path><path d="M222.05 680.02L222.05 680.02" stroke="hsl(214.79999999999995, 93.5%, 39%)" stroke-width="1.5"></path><path d="M222.05 680.02L98.32 691.82" stroke="hsl(214.79999999999995, 93.5%, 39%)" stroke-width="1.5"></path><path d="M222.05 680.02L371.17 690.93" stroke="hsl(214.79999999999995, 93.5%, 39%)" stroke-width="1.5"></path><path d="M222.05 680.02L41.97 562.29" stroke="hsl(214.79999999999995, 93.5%, 39%)" stroke-width="1.5"></path><path d="M222.05 680.02L376.28 511.92" stroke="hsl(214.79999999999995, 93.5%, 39%)" stroke-width="1.5"></path><path d="M376.28 511.92L376.28 511.92" stroke="hsl(214.79999999999995, 93.5%, 39%)" stroke-width="1.5"></path><path d="M376.28 511.92L493.65 535.38" stroke="hsl(214.79999999999995, 93.5%, 39%)" stroke-width="1.5"></path><path d="M376.28 511.92L371.17 690.93" stroke="hsl(214.79999999999995, 93.5%, 39%)" stroke-width="1.5"></path><path d="M376.28 511.92L556.14 693.92" stroke="hsl(214.79999999999995, 93.5%, 39%)" stroke-width="1.5"></path><path d="M376.28 511.92L653.95 645.32" stroke="hsl(214.79999999999995, 93.5%, 39%)" stroke-width="1.5"></path><path d="M1157.94 202.61L1157.94 202.61" stroke="hsl(214.79999999999995, 93.5%, 39%)" stroke-width="1.5"></path><path d="M1157.94 202.61L1269.19 250.46" stroke="hsl(214.79999999999995, 93.5%, 39%)" stroke-width="1.5"></path><path d="M1157.94 202.61L1108.76 345.94" stroke="hsl(214.79999999999995, 93.5%, 39%)" stroke-width="1.5"></path><path d="M1157.94 202.61L1293.17 57.94" stroke="hsl(214.79999999999995, 93.5%, 39%)" stroke-width="1.5"></path><path d="M1157.94 202.61L1293.12 406.71" stroke="hsl(214.79999999999995, 93.5%, 39%)" stroke-width="1.5"></path><path d="M1106.03 558.75L1106.03 558.75" stroke="hsl(214.79999999999995, 93.5%, 39%)" stroke-width="1.5"></path><path d="M1106.03 558.75L976.56 490.34" stroke="hsl(214.79999999999995, 93.5%, 39%)" stroke-width="1.5"></path><path d="M1106.03 558.75L1160.69 701.87" stroke="hsl(214.79999999999995, 93.5%, 39%)" stroke-width="1.5"></path><path d="M1106.03 558.75L1286.27 537.6" stroke="hsl(214.79999999999995, 93.5%, 39%)" stroke-width="1.5"></path><path d="M1106.03 558.75L940.18 650.31" stroke="hsl(214.79999999999995, 93.5%, 39%)" stroke-width="1.5"></path><path d="M1106.03 558.75L1264.2 684.78" stroke="hsl(214.79999999999995, 93.5%, 39%)" stroke-width="1.5"></path><path d="M1106.03 558.75L992.86 390.15" stroke="hsl(214.79999999999995, 93.5%, 39%)" stroke-width="1.5"></path><path d="M1293.17 57.94L1293.17 57.94" stroke="hsl(214.79999999999995, 93.5%, 39%)" stroke-width="1.5"></path><path d="M1293.17 57.94L1393.34 110.94" stroke="hsl(214.79999999999995, 93.5%, 39%)" stroke-width="1.5"></path><path d="M1293.17 57.94L1267.97 -104.98" stroke="hsl(214.79999999999995, 93.5%, 39%)" stroke-width="1.5"></path><path d="M1293.17 57.94L1269.19 250.46" stroke="hsl(214.79999999999995, 93.5%, 39%)" stroke-width="1.5"></path><path d="M1293.17 57.94L1454.78 -61.69" stroke="hsl(214.79999999999995, 93.5%, 39%)" stroke-width="1.5"></path><path d="M1293.17 57.94L1444.44 197.45" stroke="hsl(214.79999999999995, 93.5%, 39%)" stroke-width="1.5"></path><path d="M1393.34 110.94L1393.34 110.94" stroke="hsl(214.79999999999995, 93.5%, 39%)" stroke-width="1.5"></path><path d="M1393.34 110.94L1444.44 197.45" stroke="hsl(214.79999999999995, 93.5%, 39%)" stroke-width="1.5"></path><path d="M1601.06 225.26L1601.06 225.26" stroke="hsl(214.79999999999995, 93.5%, 39%)" stroke-width="1.5"></path><path d="M1601.06 225.26L1444.44 197.45" stroke="hsl(214.79999999999995, 93.5%, 39%)" stroke-width="1.5"></path><path d="M1601.06 225.26L1557.06 409.39" stroke="hsl(214.79999999999995, 93.5%, 39%)" stroke-width="1.5"></path><path d="M1601.06 225.26L1427.71 346.82" stroke="hsl(214.79999999999995, 93.5%, 39%)" stroke-width="1.5"></path><path d="M1601.06 225.26L1393.34 110.94" stroke="hsl(214.79999999999995, 93.5%, 39%)" stroke-width="1.5"></path><path d="M1601.06 225.26L1586.01 -75.7" stroke="hsl(214.79999999999995, 93.5%, 39%)" stroke-width="1.5"></path><path d="M1601.06 225.26L1563.13 525.96" stroke="hsl(214.79999999999995, 93.5%, 39%)" stroke-width="1.5"></path><path d="M1559.35 699.48L1559.35 699.48" stroke="hsl(214.79999999999995, 93.5%, 39%)" stroke-width="1.5"></path><path d="M1559.35 699.48L1563.13 525.96" stroke="hsl(214.79999999999995, 93.5%, 39%)" stroke-width="1.5"></path><path d="M1559.35 699.48L1393.49 640.91" stroke="hsl(214.79999999999995, 93.5%, 39%)" stroke-width="1.5"></path><path d="M1559.35 699.48L1417.56 561.14" stroke="hsl(214.79999999999995, 93.5%, 39%)" stroke-width="1.5"></path><path d="M-56.49 520.84L-56.49 520.84" stroke="hsl(214.79999999999995, 93.5%, 39%)" stroke-width="1.5"></path><path d="M-56.49 520.84L41.97 562.29" stroke="hsl(214.79999999999995, 93.5%, 39%)" stroke-width="1.5"></path><path d="M-56.49 520.84L98.32 691.82" stroke="hsl(214.79999999999995, 93.5%, 39%)" stroke-width="1.5"></path><path d="M-56.49 520.84L222.05 680.02" stroke="hsl(214.79999999999995, 93.5%, 39%)" stroke-width="1.5"></path><path d="M41.97 562.29L41.97 562.29" stroke="hsl(214.79999999999995, 93.5%, 39%)" stroke-width="1.5"></path><path d="M41.97 562.29L98.32 691.82" stroke="hsl(214.79999999999995, 93.5%, 39%)" stroke-width="1.5"></path><path d="M98.32 691.82L98.32 691.82" stroke="hsl(214.79999999999995, 93.5%, 39%)" stroke-width="1.5"></path><path d="M98.32 691.82L-95.36 644.75" stroke="hsl(214.79999999999995, 93.5%, 39%)" stroke-width="1.5"></path><path d="M371.17 690.93L371.17 690.93" stroke="hsl(214.79999999999995, 93.5%, 39%)" stroke-width="1.5"></path><path d="M371.17 690.93L556.14 693.92" stroke="hsl(214.79999999999995, 93.5%, 39%)" stroke-width="1.5"></path><path d="M371.17 690.93L493.65 535.38" stroke="hsl(214.79999999999995, 93.5%, 39%)" stroke-width="1.5"></path><path d="M371.17 690.93L98.32 691.82" stroke="hsl(214.79999999999995, 93.5%, 39%)" stroke-width="1.5"></path><path d="M371.17 690.93L653.95 645.32" stroke="hsl(214.79999999999995, 93.5%, 39%)" stroke-width="1.5"></path><path d="M493.65 535.38L493.65 535.38" stroke="hsl(214.79999999999995, 93.5%, 39%)" stroke-width="1.5"></path><path d="M493.65 535.38L556.14 693.92" stroke="hsl(214.79999999999995, 93.5%, 39%)" stroke-width="1.5"></path><path d="M493.65 535.38L653.95 645.32" stroke="hsl(214.79999999999995, 93.5%, 39%)" stroke-width="1.5"></path><path d="M493.65 535.38L690.99 523.68" stroke="hsl(214.79999999999995, 93.5%, 39%)" stroke-width="1.5"></path><path d="M556.14 693.92L556.14 693.92" stroke="hsl(214.79999999999995, 93.5%, 39%)" stroke-width="1.5"></path><path d="M556.14 693.92L653.95 645.32" stroke="hsl(214.79999999999995, 93.5%, 39%)" stroke-width="1.5"></path><path d="M709.01 371.87L709.01 371.87" stroke="hsl(214.79999999999995, 93.5%, 39%)" stroke-width="1.5"></path><path d="M709.01 371.87L833.11 400.51" stroke="hsl(214.79999999999995, 93.5%, 39%)" stroke-width="1.5"></path><path d="M709.01 371.87L803.86 491.46" stroke="hsl(214.79999999999995, 93.5%, 39%)" stroke-width="1.5"></path><path d="M709.01 371.87L690.99 523.68" stroke="hsl(214.79999999999995, 93.5%, 39%)" stroke-width="1.5"></path><path d="M709.01 371.87L493.65 535.38" stroke="hsl(214.79999999999995, 93.5%, 39%)" stroke-width="1.5"></path><path d="M709.01 371.87L653.95 645.32" stroke="hsl(214.79999999999995, 93.5%, 39%)" stroke-width="1.5"></path><path d="M709.01 371.87L992.86 390.15" stroke="hsl(214.79999999999995, 93.5%, 39%)" stroke-width="1.5"></path><path d="M690.99 523.68L690.99 523.68" stroke="hsl(214.79999999999995, 93.5%, 39%)" stroke-width="1.5"></path><path d="M690.99 523.68L803.86 491.46" stroke="hsl(214.79999999999995, 93.5%, 39%)" stroke-width="1.5"></path><path d="M690.99 523.68L653.95 645.32" stroke="hsl(214.79999999999995, 93.5%, 39%)" stroke-width="1.5"></path><path d="M653.95 645.32L653.95 645.32" stroke="hsl(214.79999999999995, 93.5%, 39%)" stroke-width="1.5"></path><path d="M653.95 645.32L837.11 707.32" stroke="hsl(214.79999999999995, 93.5%, 39%)" stroke-width="1.5"></path><path d="M833.11 400.51L833.11 400.51" stroke="hsl(214.79999999999995, 93.5%, 39%)" stroke-width="1.5"></path><path d="M833.11 400.51L803.86 491.46" stroke="hsl(214.79999999999995, 93.5%, 39%)" stroke-width="1.5"></path><path d="M833.11 400.51L992.86 390.15" stroke="hsl(214.79999999999995, 93.5%, 39%)" stroke-width="1.5"></path><path d="M803.86 491.46L803.86 491.46" stroke="hsl(214.79999999999995, 93.5%, 39%)" stroke-width="1.5"></path><path d="M803.86 491.46L976.56 490.34" stroke="hsl(214.79999999999995, 93.5%, 39%)" stroke-width="1.5"></path><path d="M837.11 707.32L837.11 707.32" stroke="hsl(214.79999999999995, 93.5%, 39%)" stroke-width="1.5"></path><path d="M837.11 707.32L940.18 650.31" stroke="hsl(214.79999999999995, 93.5%, 39%)" stroke-width="1.5"></path><path d="M837.11 707.32L803.86 491.46" stroke="hsl(214.79999999999995, 93.5%, 39%)" stroke-width="1.5"></path><path d="M837.11 707.32L690.99 523.68" stroke="hsl(214.79999999999995, 93.5%, 39%)" stroke-width="1.5"></path><path d="M837.11 707.32L976.56 490.34" stroke="hsl(214.79999999999995, 93.5%, 39%)" stroke-width="1.5"></path><path d="M837.11 707.32L556.14 693.92" stroke="hsl(214.79999999999995, 93.5%, 39%)" stroke-width="1.5"></path><path d="M992.86 390.15L992.86 390.15" stroke="hsl(214.79999999999995, 93.5%, 39%)" stroke-width="1.5"></path><path d="M992.86 390.15L976.56 490.34" stroke="hsl(214.79999999999995, 93.5%, 39%)" stroke-width="1.5"></path><path d="M992.86 390.15L1108.76 345.94" stroke="hsl(214.79999999999995, 93.5%, 39%)" stroke-width="1.5"></path><path d="M976.56 490.34L976.56 490.34" stroke="hsl(214.79999999999995, 93.5%, 39%)" stroke-width="1.5"></path><path d="M976.56 490.34L940.18 650.31" stroke="hsl(214.79999999999995, 93.5%, 39%)" stroke-width="1.5"></path><path d="M976.56 490.34L833.11 400.51" stroke="hsl(214.79999999999995, 93.5%, 39%)" stroke-width="1.5"></path><path d="M940.18 650.31L940.18 650.31" stroke="hsl(214.79999999999995, 93.5%, 39%)" stroke-width="1.5"></path><path d="M1108.76 345.94L1108.76 345.94" stroke="hsl(214.79999999999995, 93.5%, 39%)" stroke-width="1.5"></path><path d="M1108.76 345.94L1269.19 250.46" stroke="hsl(214.79999999999995, 93.5%, 39%)" stroke-width="1.5"></path><path d="M1108.76 345.94L1293.12 406.71" stroke="hsl(214.79999999999995, 93.5%, 39%)" stroke-width="1.5"></path><path d="M1160.69 701.87L1160.69 701.87" stroke="hsl(214.79999999999995, 93.5%, 39%)" stroke-width="1.5"></path><path d="M1160.69 701.87L1264.2 684.78" stroke="hsl(214.79999999999995, 93.5%, 39%)" stroke-width="1.5"></path><path d="M1160.69 701.87L1286.27 537.6" stroke="hsl(214.79999999999995, 93.5%, 39%)" stroke-width="1.5"></path><path d="M1267.97 -104.98L1267.97 -104.98" stroke="hsl(214.79999999999995, 93.5%, 39%)" stroke-width="1.5"></path><path d="M1267.97 -104.98L1454.78 -61.69" stroke="hsl(214.79999999999995, 93.5%, 39%)" stroke-width="1.5"></path><path d="M1267.97 -104.98L1393.34 110.94" stroke="hsl(214.79999999999995, 93.5%, 39%)" stroke-width="1.5"></path><path d="M1269.19 250.46L1269.19 250.46" stroke="hsl(214.79999999999995, 93.5%, 39%)" stroke-width="1.5"></path><path d="M1269.19 250.46L1293.12 406.71" stroke="hsl(214.79999999999995, 93.5%, 39%)" stroke-width="1.5"></path><path d="M1269.19 250.46L1444.44 197.45" stroke="hsl(214.79999999999995, 93.5%, 39%)" stroke-width="1.5"></path><path d="M1269.19 250.46L1427.71 346.82" stroke="hsl(214.79999999999995, 93.5%, 39%)" stroke-width="1.5"></path><path d="M1293.12 406.71L1293.12 406.71" stroke="hsl(214.79999999999995, 93.5%, 39%)" stroke-width="1.5"></path><path d="M1293.12 406.71L1286.27 537.6" stroke="hsl(214.79999999999995, 93.5%, 39%)" stroke-width="1.5"></path><path d="M1293.12 406.71L1427.71 346.82" stroke="hsl(214.79999999999995, 93.5%, 39%)" stroke-width="1.5"></path><path d="M1293.12 406.71L1417.56 561.14" stroke="hsl(214.79999999999995, 93.5%, 39%)" stroke-width="1.5"></path><path d="M1286.27 537.6L1286.27 537.6" stroke="hsl(214.79999999999995, 93.5%, 39%)" stroke-width="1.5"></path><path d="M1286.27 537.6L1417.56 561.14" stroke="hsl(214.79999999999995, 93.5%, 39%)" stroke-width="1.5"></path><path d="M1264.2 684.78L1264.2 684.78" stroke="hsl(214.79999999999995, 93.5%, 39%)" stroke-width="1.5"></path><path d="M1264.2 684.78L1393.49 640.91" stroke="hsl(214.79999999999995, 93.5%, 39%)" stroke-width="1.5"></path><path d="M1264.2 684.78L1286.27 537.6" stroke="hsl(214.79999999999995, 93.5%, 39%)" stroke-width="1.5"></path><path d="M1264.2 684.78L1417.56 561.14" stroke="hsl(214.79999999999995, 93.5%, 39%)" stroke-width="1.5"></path><path d="M1454.78 -61.69L1454.78 -61.69" stroke="hsl(214.79999999999995, 93.5%, 39%)" stroke-width="1.5"></path><path d="M1454.78 -61.69L1586.01 -75.7" stroke="hsl(214.79999999999995, 93.5%, 39%)" stroke-width="1.5"></path><path d="M1454.78 -61.69L1393.34 110.94" stroke="hsl(214.79999999999995, 93.5%, 39%)" stroke-width="1.5"></path><path d="M1444.44 197.45L1444.44 197.45" stroke="hsl(214.79999999999995, 93.5%, 39%)" stroke-width="1.5"></path><path d="M1444.44 197.45L1427.71 346.82" stroke="hsl(214.79999999999995, 93.5%, 39%)" stroke-width="1.5"></path><path d="M1427.71 346.82L1427.71 346.82" stroke="hsl(214.79999999999995, 93.5%, 39%)" stroke-width="1.5"></path><path d="M1427.71 346.82L1557.06 409.39" stroke="hsl(214.79999999999995, 93.5%, 39%)" stroke-width="1.5"></path><path d="M1417.56 561.14L1417.56 561.14" stroke="hsl(214.79999999999995, 93.5%, 39%)" stroke-width="1.5"></path><path d="M1417.56 561.14L1393.49 640.91" stroke="hsl(214.79999999999995, 93.5%, 39%)" stroke-width="1.5"></path><path d="M1417.56 561.14L1563.13 525.96" stroke="hsl(214.79999999999995, 93.5%, 39%)" stroke-width="1.5"></path><path d="M1393.49 640.91L1393.49 640.91" stroke="hsl(214.79999999999995, 93.5%, 39%)" stroke-width="1.5"></path><path d="M1393.49 640.91L1286.27 537.6" stroke="hsl(214.79999999999995, 93.5%, 39%)" stroke-width="1.5"></path><path d="M1586.01 -75.7L1586.01 -75.7" stroke="hsl(214.79999999999995, 93.5%, 39%)" stroke-width="1.5"></path><path d="M1586.01 -75.7L1393.34 110.94" stroke="hsl(214.79999999999995, 93.5%, 39%)" stroke-width="1.5"></path><path d="M1557.06 409.39L1557.06 409.39" stroke="hsl(214.79999999999995, 93.5%, 39%)" stroke-width="1.5"></path><path d="M1557.06 409.39L1563.13 525.96" stroke="hsl(214.79999999999995, 93.5%, 39%)" stroke-width="1.5"></path><path d="M1563.13 525.96L1563.13 525.96" stroke="hsl(214.79999999999995, 93.5%, 39%)" stroke-width="1.5"></path><path d="M1563.13 525.96L1393.49 640.91" stroke="hsl(214.79999999999995, 93.5%, 39%)" stroke-width="1.5"></path><circle r="25" cx="-95.36" cy="644.75" fill="url(#SvgjsRadialGradient1016)"></circle><circle r="25" cx="222.05" cy="680.02" fill="url(#SvgjsRadialGradient1016)"></circle><circle r="25" cx="376.28" cy="511.92" fill="url(#SvgjsRadialGradient1016)"></circle><circle r="25" cx="1157.94" cy="202.61" fill="url(#SvgjsRadialGradient1016)"></circle><circle r="25" cx="1106.03" cy="558.75" fill="url(#SvgjsRadialGradient1016)"></circle><circle r="25" cx="1293.17" cy="57.94" fill="url(#SvgjsRadialGradient1016)"></circle><circle r="25" cx="1393.34" cy="110.94" fill="url(#SvgjsRadialGradient1016)"></circle><circle r="25" cx="1601.06" cy="225.26" fill="url(#SvgjsRadialGradient1016)"></circle><circle r="25" cx="1559.35" cy="699.48" fill="url(#SvgjsRadialGradient1016)"></circle><circle r="5" cx="-56.49" cy="520.84" fill="#82a0ca"></circle><circle r="5" cx="41.97" cy="562.29" fill="#82a0ca"></circle><circle r="5" cx="98.32" cy="691.82" fill="#82a0ca"></circle><circle r="5" cx="371.17" cy="690.93" fill="#82a0ca"></circle><circle r="5" cx="493.65" cy="535.38" fill="#82a0ca"></circle><circle r="5" cx="556.14" cy="693.92" fill="#82a0ca"></circle><circle r="5" cx="709.01" cy="371.87" fill="#82a0ca"></circle><circle r="5" cx="690.99" cy="523.68" fill="#82a0ca"></circle><circle r="5" cx="653.95" cy="645.32" fill="#82a0ca"></circle><circle r="5" cx="833.11" cy="400.51" fill="#82a0ca"></circle><circle r="5" cx="803.86" cy="491.46" fill="#82a0ca"></circle><circle r="5" cx="837.11" cy="707.32" fill="#82a0ca"></circle><circle r="5" cx="992.86" cy="390.15" fill="#82a0ca"></circle><circle r="5" cx="976.56" cy="490.34" fill="#82a0ca"></circle><circle r="5" cx="940.18" cy="650.31" fill="#82a0ca"></circle><circle r="5" cx="1108.76" cy="345.94" fill="#82a0ca"></circle><circle r="5" cx="1160.69" cy="701.87" fill="#82a0ca"></circle><circle r="5" cx="1267.97" cy="-104.98" fill="#82a0ca"></circle><circle r="5" cx="1269.19" cy="250.46" fill="#82a0ca"></circle><circle r="5" cx="1293.12" cy="406.71" fill="#82a0ca"></circle><circle r="5" cx="1286.27" cy="537.6" fill="#82a0ca"></circle><circle r="5" cx="1264.2" cy="684.78" fill="#82a0ca"></circle><circle r="5" cx="1454.78" cy="-61.69" fill="#82a0ca"></circle><circle r="5" cx="1444.44" cy="197.45" fill="#82a0ca"></circle><circle r="5" cx="1427.71" cy="346.82" fill="#82a0ca"></circle><circle r="5" cx="1417.56" cy="561.14" fill="#82a0ca"></circle><circle r="5" cx="1393.49" cy="640.91" fill="#82a0ca"></circle><circle r="5" cx="1586.01" cy="-75.7" fill="#82a0ca"></circle><circle r="5" cx="1557.06" cy="409.39" fill="#82a0ca"></circle><circle r="5" cx="1563.13" cy="525.96" fill="#82a0ca"></circle></g><defs><mask id="SvgjsMask1014"><rect width="1440" height="560" fill="#ffffff"></rect></mask><linearGradient x1="15.28%" y1="-39.29%" x2="84.72%" y2="139.29%" gradientUnits="userSpaceOnUse" id="SvgjsLinearGradient1015"><stop stop-color="#0e2a47" offset="0"></stop><stop stop-color="#00459e" offset="1"></stop></linearGradient><radialGradient id="SvgjsRadialGradient1016"><stop stop-color="#ffffff" offset="0.1"></stop><stop stop-color="rgba(5, 65, 148, 1)" offset="0.2"></stop><stop stop-color="rgba(5, 65, 148, 0)" offset="1"></stop></radialGradient></defs></svg>