<svg xmlns="http://www.w3.org/2000/svg" version="1.1" xmlns:xlink="http://www.w3.org/1999/xlink" xmlns:svgjs="http://svgjs.com/svgjs" width="1440" height="560" preserveAspectRatio="none" viewBox="0 0 1440 560"><g mask="url(&quot;#SvgjsMask1003&quot;)" fill="none"><rect width="1440" height="560" x="0" y="0" fill="url(#SvgjsLinearGradient1004)"></rect><path d="M -685.0335217626653,207 C -589.03,239.4 -397.03,389.8 -205.0335217626653,369 C -13.03,348.2 82.97,103.6 274.96647823733474,103 C 466.97,102.4 562.97,375.4 754.9664782373347,366 C 946.97,356.6 1097.96,72.6 1234.9664782373347,56 C 1371.97,39.4 1398.99,237.6 1440,283" stroke="rgba(51, 121, 194, 0.58)" stroke-width="2"></path><path d="M -85.36264981596554,193 C 10.64,215.4 202.64,291.4 394.63735018403446,305 C 586.64,318.6 682.64,225.4 874.6373501840344,261 C 1066.64,296.6 1162.64,493.6 1354.6373501840344,483 C 1546.64,472.4 1817.56,208.6 1834.6373501840344,208 C 1851.71,207.4 1518.93,425.6 1440,480" stroke="rgba(51, 121, 194, 0.58)" stroke-width="2"></path><path d="M -61.11603923062927,404 C 34.88,335.8 226.88,51.2 418.88396076937073,63 C 610.88,74.8 706.88,437.2 898.8839607693708,463 C 1090.88,488.8 1186.88,184.8 1378.8839607693708,192 C 1570.88,199.2 1846.66,525.8 1858.8839607693708,499 C 1871.11,472.2 1523.78,146.2 1440,58" stroke="rgba(51, 121, 194, 0.58)" stroke-width="2"></path><path d="M -915.4599427299875,129 C -819.46,168.4 -627.46,333.8 -435.4599427299875,326 C -243.46,318.2 -147.46,97.6 44.54005727001248,90 C 236.54,82.4 332.54,259.8 524.5400572700125,288 C 716.54,316.2 821.45,188.2 1004.5400572700125,231 C 1187.63,273.8 1352.91,447.8 1440,502" stroke="rgba(51, 121, 194, 0.58)" stroke-width="2"></path></g><defs><mask id="SvgjsMask1003"><rect width="1440" height="560" fill="#ffffff"></rect></mask><linearGradient x1="15.28%" y1="-39.29%" x2="84.72%" y2="139.29%" gradientUnits="userSpaceOnUse" id="SvgjsLinearGradient1004"><stop stop-color="#0e2a47" offset="0"></stop><stop stop-color="#00459e" offset="1"></stop></linearGradient></defs></svg>